<svg viewBox="0 0 128 128" height="100%" width="100%" xmlns="http://www.w3.org/2000/svg">
	<defs>
		<filter id="drop-shadow" x="-0.5" y="-0.5" height="200%" width="200%">
			<feOffset result="offOut" in="SourceAlpha" dx="0" dy="0"/>
			<feGaussianBlur result="blurOut" in="offOut" stdDeviation="2"/>
			<feBlend in="SourceGraphic" in2="blurOut" mode="normal"/>
		</filter>
	</defs>
	<!--
	<rect x="0" y="0" width="100%" height="100%" fill="#4502da" />
	-->
	<rect rx="50%" ry="50%" x="4" y="4" width="120" height="120" filter="url(#drop-shadow)"/>
	<rect rx="50%" ry="50%" x="4" y="4" width="120" height="120" fill="#4502da "/>
	<rect rx="50%" ry="50%" x="16" y="16" width="96" height="96" fill="#000" fill-opacity="0" stroke="#fff"
		  stroke-width="3"/>
	<g transform="translate(40 ,40) scale(2 ,2)">
		<path fill="#fafafa"
			  d="M22,18V22H18V19H15V16H12L9.74,13.74C9.19,13.91 8.61,14 8,14A6,6 0 0,1 2,8A6,6 0 0,1 8,2A6,6 0 0,1 14,8C14,8.61 13.91,9.19 13.74,9.74L22,18M7,5A2,2 0 0,0 5,7A2,2 0 0,0 7,9A2,2 0 0,0 9,7A2,2 0 0,0 7,5Z"/>
	</g>
</svg>
