<svg xmlns="http://www.w3.org/2000/svg" width="454" height="96" viewBox="0 0 454 95.9">
	<path d="M33.6 75.7c-8.8 0-13.3-4.7-13.6-14.2 0-0.5 0.2-0.8 0.6-0.9l6.7-1.1c0.6-0.1 0.9 0.2 0.9 0.7 0.2 5.8 1.9 8 5.6 8 3.4 0 5.1-1.8 5.1-7.7 0-5.8-1.1-7.7-5.4-9.4l-3.3-1.3c-7.5-3-9.7-6.9-9.7-15.3C20.6 25.1 24.8 20 33.7 20c8.9 0 12.9 4.8 13.3 13.3 0 0.5-0.2 0.7-0.7 0.9l-6.4 1c-0.5 0.1-0.9-0.2-0.9-0.6 -0.2-4.5-1.6-6.9-5.1-6.9 -3.4 0-5 2.1-5 6.5 0 5 1 6.5 5.3 8.2l3.3 1.3c7.1 2.8 9.9 6.6 9.9 15.9C47.5 70.2 43.9 75.7 33.6 75.7z"/>
	<path d="M50 21.5c0-0.5 0.3-0.8 0.8-0.8h6.9c0.5 0 0.8 0.3 0.8 0.8v52.7c0 0.5-0.3 0.8-0.8 0.8h-6.9c-0.5 0-0.8-0.3-0.8-0.8V21.5z"/>
	<path d="M63 21.5c0-0.5 0.3-0.8 0.8-0.8h8.5c0.6 0 1 0.2 1.1 0.8L83.5 59.1h0.4V21.5c0-0.5 0.3-0.8 0.8-0.8h5.9c0.5 0 0.8 0.3 0.8 0.8v52.7c0 0.5-0.3 0.8-0.8 0.8h-7.9c-0.6 0-1-0.2-1.1-0.8L71 36.7h-0.5v37.5c0 0.5-0.3 0.8-0.8 0.8h-5.9c-0.5 0-0.8-0.3-0.8-0.8V21.5z"/>
	<path d="M95.9 21.5c0-0.5 0.3-0.8 0.8-0.8h8.5c0.6 0 1 0.2 1.1 0.8l10.1 37.5h0.4V21.5c0-0.5 0.3-0.8 0.8-0.8h5.9c0.5 0 0.8 0.3 0.8 0.8v52.7c0 0.5-0.3 0.8-0.8 0.8h-7.9c-0.6 0-1-0.2-1.1-0.8L103.9 36.7h-0.5v37.5c0 0.5-0.3 0.8-0.8 0.8h-5.9c-0.5 0-0.8-0.3-0.8-0.8V21.5z"/>
	<path d="M128.7 21.5c0-0.5 0.3-0.8 0.8-0.8h22.3c0.5 0 0.8 0.3 0.8 0.8v6.1c0 0.5-0.3 0.8-0.8 0.8h-14.1c-0.3 0-0.5 0.2-0.5 0.5v14.3c0 0.3 0.2 0.5 0.5 0.5h12.1c0.5 0 0.8 0.3 0.8 0.8v6.1c0 0.5-0.3 0.8-0.8 0.8h-12.1c-0.3 0-0.5 0.2-0.5 0.5v14.9c0 0.3 0.2 0.5 0.5 0.5h14.1c0.5 0 0.8 0.3 0.8 0.8v6.1c0 0.5-0.3 0.8-0.8 0.8h-22.3c-0.5 0-0.8-0.3-0.8-0.8V21.5z"/>
	<path d="M177.3 75c-0.5 0-0.7-0.2-0.9-0.6l-6.6-21.6h-1.4 -2.7c-0.3 0-0.5 0.2-0.5 0.5v20.9c0 0.5-0.3 0.8-0.8 0.8h-6.9c-0.5 0-0.8-0.3-0.8-0.8V21.5c0-0.5 0.3-0.8 0.8-0.8h10.9c9.7 0 15.5 4.2 15.5 16.1 0 7.1-2.4 11.6-6.5 13.9l7.7 23.5c0.2 0.4 0 0.8-0.4 0.8H177.3zM175.4 36.9c0-6.4-2.1-8.4-6.9-8.4h-2.8c-0.3 0-0.5 0.2-0.5 0.5v15.8c0 0.3 0.2 0.5 0.5 0.5h2.8C173.3 45.2 175.4 43.3 175.4 36.9z"/>
	<path d="M201 75.7c-8.8 0-13.3-4.7-13.6-14.2 0-0.5 0.2-0.8 0.6-0.9l6.7-1.1c0.6-0.1 0.9 0.2 0.9 0.7 0.2 5.8 1.9 8 5.6 8 3.4 0 5.1-1.8 5.1-7.7 0-5.8-1.1-7.7-5.4-9.4l-3.3-1.3c-7.5-3-9.7-6.9-9.7-15.3 0-9.3 4.2-14.5 13.2-14.5 8.9 0 12.9 4.8 13.3 13.3 0 0.5-0.2 0.7-0.7 0.9l-6.4 1c-0.5 0.1-0.9-0.2-0.9-0.6 -0.2-4.5-1.6-6.9-5.1-6.9 -3.4 0-5 2.1-5 6.5 0 5 1 6.5 5.3 8.2l3.3 1.3c7.1 2.8 9.9 6.6 9.9 15.9C214.9 70.2 211.3 75.7 201 75.7z"/>
	<path d="M218.1 47.9c0-15.1 0.3-17.3 1-19.6 1.7-5.2 5.7-8.3 12.3-8.3 7.7 0 12.6 4 13.1 13 0.1 0.5-0.1 0.9-0.6 1l-6.5 1.1c-0.5 0.1-0.9-0.2-0.9-0.7 -0.2-4.6-1.8-6.6-5-6.6 -2.4 0-3.7 1-4.3 3 -0.4 1.3-0.6 2.4-0.6 17.1s0.2 15.8 0.6 17.1c0.6 2 1.9 3 4.3 3 3.1 0 4.7-2 5-6.6 0-0.6 0.4-0.8 0.9-0.7l6.5 1.1c0.5 0.1 0.6 0.5 0.6 1 -0.5 9-5.3 13-13.1 13 -6.6 0-10.6-3.1-12.3-8.3C218.4 65.2 218.1 63 218.1 47.9z"/>
	<path d="M249.1 21.5c0-0.5 0.3-0.8 0.8-0.8h6.9c0.5 0 0.8 0.3 0.8 0.8V42.9c0 0.3 0.2 0.5 0.5 0.5h9.2c0.3 0 0.5-0.2 0.5-0.5V21.5c0-0.5 0.3-0.8 0.8-0.8h6.9c0.5 0 0.8 0.3 0.8 0.8v52.7c0 0.5-0.3 0.8-0.8 0.8h-6.9c-0.5 0-0.8-0.3-0.8-0.8v-22.6c0-0.3-0.2-0.5-0.5-0.5h-9.2c-0.3 0-0.5 0.2-0.5 0.5v22.6c0 0.5-0.3 0.8-0.8 0.8h-6.9c-0.5 0-0.8-0.3-0.8-0.8V21.5z"/>
	<path d="M301.4 75c-0.5 0-0.7-0.2-0.9-0.6l-6.6-21.6h-1.4 -2.7c-0.3 0-0.5 0.2-0.5 0.5v20.9c0 0.5-0.3 0.8-0.8 0.8h-6.9c-0.5 0-0.8-0.3-0.8-0.8V21.5c0-0.5 0.3-0.8 0.8-0.8h10.9c9.7 0 15.5 4.2 15.5 16.1 0 7.1-2.4 11.6-6.5 13.9l7.7 23.5c0.2 0.4 0 0.8-0.4 0.8H301.4zM299.5 36.9c0-6.4-2.1-8.4-6.9-8.4h-2.8c-0.3 0-0.5 0.2-0.5 0.5v15.8c0 0.3 0.2 0.5 0.5 0.5h2.8C297.4 45.2 299.5 43.3 299.5 36.9z"/>
	<path d="M323.3 21.5c0.2-0.5 0.4-0.8 0.9-0.8h6.7c0.5 0 0.8 0.3 0.9 0.8l11.5 52.7c0.1 0.5-0.2 0.8-0.6 0.8h-6.8c-0.6 0-0.8-0.3-0.9-0.8l-2.2-10.9H322l-2.2 10.9c-0.1 0.5-0.3 0.8-0.9 0.8h-6.8c-0.5 0-0.7-0.3-0.6-0.8L323.3 21.5zM331.5 56.1l-3.8-20.2h-0.2l-4 20.2H331.5z"/>
	<path d="M346.1 21.5c0-0.5 0.3-0.8 0.8-0.8h12.5c7.1 0 11.3 2.9 13.2 8.7 1 3 1.4 6.6 1.4 18.4s-0.4 15.5-1.4 18.4c-1.9 5.8-6.1 8.7-13.2 8.7h-12.5c-0.5 0-0.8-0.3-0.8-0.8V21.5zM355.1 67.3h3.4c3 0 4.8-1.2 5.8-3.9 0.6-2 1-4.6 1-15.5s-0.3-13.5-1-15.5c-1-2.7-2.7-3.9-5.7-3.9h-3.4c-0.3 0-0.5 0.2-0.5 0.5v37.9C354.6 67.1 354.8 67.3 355.1 67.3z"/>
	<path d="M377.5 21.5c0-0.5 0.3-0.8 0.8-0.8h22.3c0.5 0 0.8 0.3 0.8 0.8v6.1c0 0.5-0.3 0.8-0.8 0.8h-14.1c-0.3 0-0.5 0.2-0.5 0.5v14.3c0 0.3 0.2 0.5 0.5 0.5h12.1c0.5 0 0.8 0.3 0.8 0.8v6.1c0 0.5-0.3 0.8-0.8 0.8h-12.1c-0.3 0-0.5 0.2-0.5 0.5v14.9c0 0.3 0.2 0.5 0.5 0.5h14.1c0.5 0 0.8 0.3 0.8 0.8v6.1c0 0.5-0.3 0.8-0.8 0.8h-22.3c-0.5 0-0.8-0.3-0.8-0.8V21.5z"/>
	<path d="M426.1 75c-0.5 0-0.7-0.2-0.9-0.6l-6.6-21.6h-1.4 -2.7c-0.3 0-0.5 0.2-0.5 0.5v20.9c0 0.5-0.3 0.8-0.8 0.8h-6.9c-0.5 0-0.8-0.3-0.8-0.8V21.5c0-0.5 0.3-0.8 0.8-0.8h10.9c9.7 0 15.5 4.2 15.5 16.1 0 7.1-2.4 11.6-6.5 13.9l7.7 23.5c0.2 0.4 0 0.8-0.4 0.8H426.1zM424.2 36.9c0-6.4-2.1-8.4-6.9-8.4h-2.8c-0.3 0-0.5 0.2-0.5 0.5v15.8c0 0.3 0.2 0.5 0.5 0.5h2.8C422.1 45.2 424.2 43.3 424.2 36.9z"/>
</svg>
