<?xml version="1.0" standalone="no"?>
<!DOCTYPE svg PUBLIC "-//W3C//DTD SVG 20010904//EN"
		"http://www.w3.org/TR/2001/REC-SVG-20010904/DTD/svg10.dtd">
<svg version="1.0" xmlns="http://www.w3.org/2000/svg"
	 width="700.000000pt" height="700.000000pt" viewBox="0 0 700.000000 700.000000"
	 preserveAspectRatio="xMidYMid meet">
	<metadata>
		Created by potrace 1.11, written by Peter Selinger 2001-2013
	</metadata>
	<g transform="translate(0.000000,700.000000) scale(0.100000,-0.100000)"
	   fill="#000000" stroke="none">
		<path d="M3553 6849 c-2 -23 3 -25 10 -4 4 8 3 16 -1 19 -4 3 -9 -4 -9 -15z"/>
		<path d="M3755 6860 c3 -5 8 -10 11 -10 2 0 4 5 4 10 0 6 -5 10 -11 10 -5 0
-7 -4 -4 -10z"/>
		<path d="M3076 6842 c-3 -5 1 -9 9 -9 8 0 12 4 9 9 -3 4 -7 8 -9 8 -2 0 -6 -4
-9 -8z"/>
		<path d="M3275 6840 c-4 -6 -1 -9 7 -8 7 2 12 -3 10 -10 -1 -8 2 -11 8 -7 8 5
7 11 -1 21 -14 17 -16 17 -24 4z"/>
		<path d="M3445 6839 c3 -3 17 -5 32 -4 15 1 33 -2 39 -6 6 -5 11 -4 11 4 0 8
-15 13 -43 13 -23 0 -41 -3 -39 -7z"/>
		<path d="M3679 6843 c-1 -5 -1 -12 0 -17 1 -5 -5 -6 -14 -2 -10 3 -14 2 -10
-5 9 -14 28 -6 31 14 1 9 0 17 -2 17 -2 0 -5 -3 -5 -7z"/>
		<path d="M3714 6836 c1 -8 5 -18 8 -22 4 -3 5 1 4 10 -1 8 -5 18 -8 22 -4 3
-5 -1 -4 -10z"/>
		<path d="M2976 6821 c-3 -5 2 -15 12 -22 15 -12 16 -12 5 2 -7 9 -10 19 -6 22
3 4 4 7 0 7 -3 0 -8 -4 -11 -9z"/>
		<path d="M3015 6820 c-3 -5 -1 -10 4 -10 6 0 11 5 11 10 0 6 -2 10 -4 10 -3 0
-8 -4 -11 -10z"/>
		<path d="M3257 6819 c7 -7 15 -10 18 -7 3 3 -2 9 -12 12 -14 6 -15 5 -6 -5z"/>
		<path d="M3350 6819 c0 -5 5 -7 10 -4 6 3 10 8 10 11 0 2 -4 4 -10 4 -5 0 -10
-5 -10 -11z"/>
		<path d="M3388 6808 c2 -10 6 -18 7 -18 1 0 5 8 7 18 3 11 0 19 -7 19 -7 0
-10 -8 -7 -19z"/>
		<path d="M3426 6815 c3 -7 12 -16 19 -19 9 -3 12 0 9 9 -3 7 -12 16 -19 19 -9
3 -12 0 -9 -9z"/>
		<path d="M3630 6821 c0 -6 4 -13 10 -16 6 -3 7 1 4 9 -7 18 -14 21 -14 7z"/>
		<path d="M3182 6800 c0 -14 2 -19 5 -12 2 6 2 18 0 25 -3 6 -5 1 -5 -13z"/>
		<path d="M3330 6805 c0 -8 4 -15 10 -15 5 0 7 7 4 15 -4 8 -8 15 -10 15 -2 0
-4 -7 -4 -15z"/>
		<path d="M3484 6805 c5 -18 1 -21 -33 -21 -31 -1 -38 3 -34 15 4 13 2 12 -7
-1 -11 -18 -45 -13 -33 5 3 6 1 7 -6 3 -6 -4 -9 -11 -6 -16 3 -5 -10 -9 -29
-8 -31 1 -34 3 -23 17 10 14 10 14 -4 4 -9 -7 -19 -9 -23 -5 -4 4 -13 0 -19
-8 -7 -8 -28 -16 -47 -16 -67 -3 -137 -11 -151 -19 -8 -4 0 5 16 19 l30 27
-28 -17 c-20 -12 -31 -14 -39 -6 -12 12 -38 5 -38 -10 0 -7 5 -6 13 1 13 10
27 6 27 -9 0 -7 -31 -12 -82 -12 -21 -1 -35 -4 -33 -8 2 -4 -2 -7 -11 -7 -10
0 -13 7 -9 21 6 21 6 21 -6 1 -22 -35 -52 -48 -43 -17 5 16 5 16 -9 0 -19 -24
-30 -23 -17 1 7 14 7 22 -2 27 -6 4 -9 3 -5 -2 7 -13 -15 -48 -33 -53 -8 -2
-27 -4 -42 -4 -15 0 -25 -3 -23 -7 2 -4 -1 -7 -8 -8 -7 0 -25 -3 -42 -6 -21
-5 -26 -4 -15 3 8 5 18 7 22 5 5 -3 8 -2 7 3 -3 18 2 27 9 17 5 -9 11 -8 20 2
24 26 -27 10 -60 -19 -29 -26 -31 -26 -43 -10 -8 10 -17 15 -21 10 -4 -4 -2
-7 4 -7 7 0 12 -6 12 -14 0 -9 -16 -17 -42 -22 -45 -8 -53 -10 -65 -14 -5 -1
-11 -2 -15 -1 -5 0 -8 -4 -8 -9 0 -6 -7 -10 -15 -10 -9 0 -12 6 -9 15 4 8 1
15 -6 15 -6 0 -8 -4 -5 -10 9 -14 -9 -12 -24 3 -7 6 -11 8 -10 2 4 -13 -21
-58 -28 -52 -2 3 -19 -1 -38 -8 -18 -8 -35 -11 -39 -8 -3 4 -6 1 -6 -6 0 -7
-9 -5 -27 6 -15 10 -24 13 -20 7 4 -7 0 -15 -9 -18 -12 -5 -15 -2 -10 11 6 14
4 15 -5 6 -17 -17 -2 -35 21 -23 24 13 30 13 30 -1 0 -5 -4 -7 -10 -4 -5 3
-10 1 -10 -5 0 -6 -4 -9 -9 -5 -5 3 -13 0 -16 -6 -5 -7 -12 -3 -22 10 -8 12
-11 25 -8 31 3 6 -1 7 -9 4 -14 -5 -14 -8 -1 -27 19 -27 19 -38 0 -31 -8 4
-15 2 -15 -4 0 -8 -52 -36 -70 -37 -3 0 -15 -6 -27 -13 -12 -6 -29 -9 -39 -5
-11 4 -15 3 -10 -5 5 -9 -42 -44 -64 -47 -17 -2 -70 -31 -70 -39 0 -4 -7 -3
-15 4 -13 11 -14 10 -9 -6 4 -10 3 -16 -1 -11 -5 4 -18 -2 -30 -13 -20 -19
-23 -19 -29 -5 -3 9 -3 22 1 27 3 7 1 8 -6 4 -6 -4 -9 -16 -6 -25 3 -10 -1
-24 -9 -30 -11 -10 -17 -8 -26 6 -10 16 -10 16 -5 -3 4 -17 -2 -27 -32 -45
-56 -36 -76 -47 -93 -55 -8 -4 -19 -14 -23 -21 -7 -12 -11 -12 -25 -1 -13 11
-15 11 -9 -4 6 -17 -15 -43 -26 -31 -4 3 -7 1 -7 -6 0 -7 -5 -9 -10 -6 -5 3
-10 -2 -10 -12 0 -14 -2 -15 -9 -4 -5 8 -14 10 -22 6 -9 -6 -11 -3 -6 8 3 10
2 17 -4 17 -6 0 -9 -8 -7 -17 2 -10 10 -17 16 -15 17 3 15 -15 -2 -21 -8 -3
-17 -1 -20 6 -3 7 -3 2 0 -10 4 -17 1 -23 -10 -23 -9 0 -16 -4 -16 -8 0 -5 -7
-9 -15 -9 -8 0 -15 5 -15 10 0 6 -3 7 -6 4 -4 -4 -1 -15 7 -24 7 -10 10 -15 6
-12 -5 4 -20 -4 -34 -17 -31 -29 -53 -32 -28 -4 13 15 15 24 8 31 -8 8 -13 7
-18 -2 -5 -8 -4 -10 3 -5 16 9 15 -7 0 -22 -15 -15 -31 -16 -22 0 4 7 3 8 -5
4 -6 -4 -9 -11 -6 -15 2 -5 -4 -16 -14 -25 -12 -11 -21 -13 -24 -6 -3 6 -4 5
-2 -2 1 -7 8 -12 14 -10 6 1 11 -2 11 -6 0 -12 -80 -88 -81 -77 0 6 -4 -1 -10
-13 -5 -13 -18 -26 -29 -29 -11 -3 -17 -10 -13 -16 4 -6 0 -8 -11 -4 -11 4
-15 3 -11 -4 4 -6 -3 -13 -15 -16 -16 -4 -18 -8 -8 -14 10 -7 9 -9 -5 -9 -10
0 -15 -4 -12 -10 3 -5 2 -10 -4 -10 -5 0 -12 6 -15 13 -3 6 -3 2 0 -10 4 -16
1 -23 -10 -24 -33 -3 -37 -4 -46 -19 -5 -8 -7 -17 -4 -22 7 -12 -19 -48 -36
-48 -8 0 -22 -5 -30 -11 -12 -8 -9 -9 10 -5 14 3 19 3 12 0 -6 -3 -9 -10 -6
-16 4 -7 -2 -7 -17 -3 -21 7 -22 6 -11 -8 11 -12 9 -18 -13 -35 -14 -11 -25
-23 -25 -28 0 -4 -7 -15 -16 -25 -16 -18 -59 -15 -47 4 3 6 1 7 -6 3 -14 -9
-5 -26 15 -26 8 0 14 -4 14 -10 0 -5 -7 -10 -16 -10 -10 0 -14 -6 -11 -14 6
-14 -22 -46 -39 -46 -5 0 -1 7 10 15 17 13 17 15 2 37 -9 12 -16 17 -16 11 0
-7 5 -15 12 -19 8 -5 6 -11 -7 -20 -13 -10 -15 -17 -7 -27 7 -8 7 -18 2 -27
-8 -13 -10 -13 -10 1 0 9 -7 20 -16 23 -13 5 -14 4 -6 -7 15 -18 8 -49 -20
-89 -13 -18 -23 -34 -24 -36 -1 -1 -12 -5 -24 -7 -30 -6 -34 -11 -15 -19 11
-4 14 -2 9 6 -4 7 -3 8 5 4 8 -5 7 -15 -6 -36 -18 -32 -43 -46 -52 -31 -3 5
-12 2 -20 -6 -11 -12 -11 -14 0 -12 29 3 38 -1 32 -17 -5 -13 -7 -13 -14 -2
-6 9 -9 4 -9 -14 0 -16 -4 -28 -9 -28 -5 0 -12 -11 -15 -25 -4 -14 -11 -25
-17 -25 -6 0 -7 -5 -3 -12 5 -8 2 -9 -9 -5 -11 4 -20 -1 -27 -14 -8 -14 -8
-19 1 -17 6 2 14 -3 17 -11 3 -8 0 -11 -7 -7 -6 4 -11 2 -11 -4 0 -6 -5 -8
-12 -4 -10 6 -10 4 0 -8 10 -13 10 -19 -3 -32 -9 -9 -14 -16 -10 -16 3 0 -2
-11 -11 -25 -9 -14 -13 -25 -10 -25 4 0 2 -9 -4 -20 -6 -11 -16 -18 -22 -14
-6 4 -8 -1 -3 -15 4 -15 1 -23 -10 -27 -9 -4 -14 -13 -11 -21 3 -7 -3 -22 -14
-33 -13 -13 -15 -20 -7 -23 7 -3 0 -15 -18 -31 -16 -14 -25 -25 -18 -26 6 0
14 6 16 13 4 8 6 7 6 -3 1 -23 -15 -44 -23 -31 -4 6 -12 11 -17 11 -6 0 -3 -7
5 -16 18 -18 20 -30 6 -39 -6 -4 -8 -11 -5 -16 3 -5 -2 -6 -12 -2 -14 4 -15 3
-7 -6 15 -16 6 -54 -11 -47 -6 2 -18 0 -26 -5 -12 -7 -12 -9 1 -10 8 -1 18 -1
23 0 15 2 6 -29 -15 -50 -13 -12 -18 -19 -11 -15 8 4 10 -2 7 -21 -7 -36 -9
-37 -28 -18 -20 20 -21 7 -1 -15 18 -20 9 -57 -16 -65 -11 -4 -16 -11 -13 -17
4 -6 10 -5 15 3 6 10 8 5 5 -14 -8 -50 -17 -68 -29 -60 -8 4 -8 2 1 -9 16 -20
5 -48 -16 -41 -13 4 -13 2 2 -9 18 -14 18 -15 -4 -21 -13 -3 -19 -10 -15 -17
4 -7 -2 -9 -20 -6 -15 3 -24 2 -20 -2 3 -4 19 -7 33 -8 29 0 30 -5 17 -69 -10
-47 -13 -69 -14 -89 -1 -12 -6 -16 -16 -13 -17 7 -30 -9 -15 -18 8 -5 8 -11 0
-21 -7 -7 -10 -19 -7 -26 3 -8 6 -6 6 5 1 10 5 16 10 12 6 -3 8 4 6 15 -2 11
0 20 6 20 10 0 8 -28 -3 -46 -4 -6 -5 -21 -3 -33 3 -15 0 -21 -8 -18 -7 3 -11
9 -10 14 1 5 -5 10 -13 10 -11 0 -10 -5 5 -21 40 -44 14 -176 -28 -144 -13 10
-14 10 -4 -1 6 -7 9 -21 6 -30 -3 -9 2 -6 11 7 10 12 22 20 27 16 6 -3 3 -12
-8 -20 -10 -7 -13 -14 -8 -14 7 0 10 -62 10 -177 -1 -98 3 -184 8 -190 6 -9 6
-13 -1 -13 -6 0 -16 8 -21 18 -6 9 -10 13 -10 7 0 -5 6 -19 14 -29 8 -10 12
-23 9 -27 -3 -5 -1 -9 4 -9 5 0 9 -7 9 -15 0 -8 -4 -12 -9 -9 -4 3 -8 0 -8 -5
0 -6 5 -11 10 -11 6 0 10 -4 10 -10 0 -5 -6 -7 -14 -4 -8 3 -17 1 -20 -4 -3
-5 2 -9 12 -8 9 0 17 -6 17 -14 0 -8 4 -21 8 -27 5 -7 4 -13 -2 -13 -5 0 -12
6 -15 13 -3 6 -4 3 -3 -8 2 -11 9 -19 17 -17 11 3 11 0 -1 -14 -9 -12 -9 -15
-1 -10 6 4 12 3 12 -3 0 -13 -35 -32 -44 -24 -3 3 -6 1 -6 -5 0 -15 6 -15 31
-2 10 6 19 7 20 3 0 -4 2 -18 5 -31 2 -13 0 -21 -5 -18 -5 3 -14 -1 -21 -9
-10 -12 -7 -17 13 -26 14 -6 25 -19 25 -28 0 -9 3 -31 7 -49 7 -29 5 -32 -10
-25 -15 5 -15 3 3 -15 24 -24 29 -44 9 -36 -7 2 -22 -5 -33 -17 l-19 -22 25
16 c27 17 45 12 46 -13 0 -8 5 -33 12 -55 6 -22 13 -51 16 -65 2 -14 8 -36 14
-50 5 -14 7 -31 5 -37 -3 -7 1 -13 8 -13 7 0 10 -3 6 -6 -3 -3 -16 1 -29 10
-21 15 -18 21 7 16 6 -1 4 4 -2 11 -15 15 -22 10 -28 -19 -3 -15 0 -19 11 -15
9 3 14 0 12 -8 -2 -9 4 -13 15 -11 10 2 17 -3 17 -13 0 -25 -4 -30 -25 -28
-18 3 -18 2 -2 -8 9 -5 22 -7 27 -4 10 6 18 -7 24 -37 2 -7 6 -20 9 -28 27
-64 35 -98 24 -110 -10 -10 -8 -11 8 -6 11 4 16 4 12 0 -4 -4 0 -15 8 -24 8
-9 16 -25 18 -36 1 -10 6 -25 10 -31 11 -18 -2 -35 -22 -29 -15 6 -15 5 0 -6
9 -7 17 -16 17 -20 3 -11 12 -11 20 -2 4 4 2 4 -4 1 -6 -3 -11 0 -11 8 0 18
17 20 18 3 1 -7 1 -16 1 -20 -1 -3 5 -11 13 -18 12 -10 12 -15 -1 -36 -9 -13
-20 -21 -25 -18 -5 3 -6 -3 -2 -12 6 -16 7 -16 19 1 7 10 15 23 17 29 2 6 8 8
12 4 4 -4 2 -14 -4 -22 -14 -16 1 -56 20 -56 6 0 3 7 -5 16 -20 20 -21 35 -1
28 8 -4 13 -10 10 -14 -3 -5 -1 -11 5 -15 6 -4 8 -10 5 -15 -3 -4 2 -13 10
-20 8 -7 15 -18 15 -24 0 -6 -5 -4 -10 4 -7 12 -9 11 -8 -6 1 -12 9 -21 18
-20 8 1 15 -6 15 -14 0 -8 5 -19 12 -25 15 -13 93 -151 93 -165 0 -5 -7 -10
-15 -10 -8 0 -15 -4 -15 -8 0 -5 7 -9 15 -9 8 0 15 4 15 9 0 21 18 3 48 -46
37 -62 38 -68 15 -59 -13 5 -12 1 4 -13 13 -10 30 -28 39 -39 8 -11 12 -13 8
-5 -4 8 -14 23 -22 33 -8 9 -11 17 -6 17 9 0 49 -59 47 -70 0 -3 8 -11 19 -18
10 -7 16 -18 13 -23 -4 -5 -2 -9 4 -9 5 0 13 -9 16 -20 4 -11 11 -18 16 -15 5
4 9 1 9 -6 0 -6 10 -20 22 -30 11 -11 17 -19 12 -19 -5 0 5 -11 21 -24 26 -21
28 -25 12 -31 -9 -4 -17 -12 -17 -17 0 -6 6 -5 15 2 17 14 35 5 35 -16 0 -8
-5 -12 -10 -9 -6 4 -7 11 -4 17 4 7 2 8 -4 4 -11 -7 -6 -36 7 -36 4 0 12 5 18
11 8 8 13 5 18 -10 3 -12 11 -19 16 -16 14 9 11 -5 -5 -20 -7 -8 -17 -11 -21
-7 -5 4 -5 1 -1 -5 5 -10 11 -10 26 -1 16 10 23 8 44 -11 14 -13 23 -28 20
-32 -3 -5 3 -9 13 -9 15 0 16 -2 3 -10 -12 -8 -11 -10 7 -10 12 0 25 -5 29
-12 5 -7 2 -9 -9 -5 -11 4 -14 2 -11 -8 3 -8 11 -12 18 -9 15 6 76 -45 76 -64
0 -8 3 -12 7 -9 3 4 20 -8 37 -26 17 -17 35 -32 41 -32 15 0 18 -35 3 -35 -8
0 -6 -5 5 -11 10 -6 21 -8 24 -5 4 3 1 6 -6 6 -7 0 -9 4 -6 10 4 6 15 2 27 -9
11 -11 17 -24 14 -29 -4 -6 2 -8 14 -5 12 3 20 0 20 -6 0 -7 -5 -9 -12 -5 -7
4 -8 3 -4 -4 4 -6 13 -9 20 -6 9 3 17 -3 21 -15 3 -12 11 -21 16 -21 6 0 7 5
3 12 -4 7 -3 8 4 4 7 -4 12 -12 12 -18 0 -6 7 -20 17 -30 15 -17 15 -18 -2
-18 -10 0 -16 -3 -12 -6 3 -4 14 -4 23 0 15 6 15 8 -2 27 -16 18 -16 19 -1 13
9 -3 17 -10 17 -15 0 -5 5 -9 11 -9 6 0 17 -7 25 -15 8 -8 22 -18 31 -23 12
-7 13 -13 4 -31 -8 -14 -8 -21 -1 -21 5 0 10 7 10 15 0 22 28 18 35 -5 4 -11
11 -18 16 -14 5 3 25 -4 45 -16 30 -19 33 -24 22 -38 -11 -13 -11 -14 1 -7 11
6 13 4 8 -9 -4 -10 -3 -15 3 -11 6 3 10 14 10 23 0 13 2 13 16 -4 8 -10 12
-13 8 -5 -4 8 9 2 29 -13 42 -32 50 -47 11 -21 -14 9 -28 14 -31 11 -3 -3 2
-8 11 -12 9 -3 14 -9 11 -13 -5 -9 26 -8 42 2 7 4 16 0 21 -9 5 -9 11 -16 13
-15 13 2 49 -13 49 -20 0 -5 7 -9 15 -9 8 0 15 -4 15 -10 0 -5 3 -9 8 -9 17 4
72 -24 66 -33 -3 -5 0 -8 7 -7 17 4 99 -32 99 -43 0 -4 8 -4 18 -1 15 6 15 5
3 -10 -7 -9 -19 -17 -27 -17 -7 0 -16 -4 -19 -10 -7 -11 23 -2 42 12 7 6 18 6
24 2 8 -4 9 -3 5 5 -4 6 8 4 28 -6 20 -9 36 -21 36 -25 0 -5 5 -6 10 -3 6 3
16 3 23 -2 6 -4 17 -8 22 -9 32 -6 65 -26 65 -39 0 -8 5 -15 11 -15 5 0 7 5 4
10 -3 6 1 10 10 10 9 0 14 -4 10 -9 -3 -6 3 -10 12 -11 46 -1 63 -5 63 -13 0
-4 8 -7 17 -5 10 2 18 -3 19 -9 1 -7 2 -17 3 -23 1 -13 28 -13 36 0 3 5 0 7
-8 4 -18 -6 -32 12 -17 21 5 3 10 1 10 -6 0 -7 3 -10 6 -6 3 3 19 1 36 -5 21
-7 26 -14 19 -21 -6 -6 -11 -15 -11 -20 0 -5 8 1 19 14 15 19 21 21 33 11 8
-6 18 -9 21 -6 3 3 12 2 19 -2 7 -5 20 -9 28 -11 8 -1 16 -7 18 -12 2 -6 8
-11 13 -11 6 0 7 5 4 10 -3 6 -2 10 4 10 5 0 12 -4 15 -9 3 -5 17 -9 31 -10
48 -3 54 -4 49 -13 -3 -4 8 -6 24 -4 33 3 61 -20 54 -44 -3 -13 -2 -13 7 0 7
10 6 18 -1 27 -8 10 -6 13 6 13 9 0 16 -5 16 -10 0 -6 10 -8 24 -4 13 3 27 1
30 -5 4 -5 13 -8 21 -4 8 3 15 0 15 -6 0 -6 5 -11 11 -11 5 0 8 4 5 8 -3 5 1
9 10 9 10 0 13 -7 9 -21 -5 -17 -3 -16 9 4 9 14 15 20 16 14 0 -7 16 -11 39
-10 28 1 37 -2 34 -11 -3 -7 0 -13 6 -13 6 0 11 4 11 10 0 5 11 9 25 8 27 -3
31 -8 15 -24 -7 -7 -6 -11 4 -11 8 0 12 5 9 10 -4 7 1 8 12 3 14 -5 15 -4 7 7
-8 10 -6 13 9 14 11 1 17 -2 14 -8 -4 -5 -1 -9 5 -9 6 0 8 -5 4 -12 -4 -7 -3
-8 4 -4 6 4 8 14 5 24 -5 14 -2 13 11 -3 10 -11 15 -15 13 -10 -3 7 59 10 180
10 158 0 186 -2 196 -16 11 -15 14 -15 27 -1 13 14 12 15 -3 9 -9 -3 -19 -2
-22 3 -4 6 6 11 22 11 115 6 113 6 107 -13 -3 -10 0 -18 6 -18 6 0 8 5 5 10
-3 6 -1 10 5 10 6 0 8 5 5 10 -3 6 0 10 7 11 7 0 23 2 35 5 15 2 21 0 17 -9
-3 -9 5 -13 26 -13 23 0 29 3 25 16 -3 11 0 17 10 17 8 0 15 -4 15 -8 0 -4 7
-10 16 -13 14 -5 15 -4 5 8 -9 10 -9 15 1 18 17 6 58 2 83 -7 l20 -8 -20 16
c-20 16 -20 16 3 14 12 -1 22 -5 22 -9 0 -4 5 -8 10 -8 6 0 9 5 8 11 -2 6 3
14 10 16 8 3 10 -2 6 -14 -5 -16 -4 -16 8 -3 13 15 31 22 56 23 6 0 12 4 12 9
0 4 5 8 11 8 5 0 8 -4 5 -8 -2 -4 0 -14 5 -22 8 -12 9 -11 7 4 -2 10 3 21 11
24 9 3 11 0 6 -8 -5 -9 -4 -11 3 -6 7 4 13 2 13 -3 3 -26 4 -30 11 -37 8 -7 4
21 -7 49 -4 10 -3 17 4 17 6 0 11 -5 11 -11 0 -5 5 -7 10 -4 6 4 8 10 6 14 -3
4 1 8 7 8 7 0 14 -9 14 -19 1 -10 -2 -16 -7 -13 -5 3 -11 2 -14 -3 -2 -4 6 -8
19 -8 19 0 22 3 15 16 -11 21 0 38 23 34 9 -1 17 2 17 8 0 6 9 8 20 5 10 -3
20 -1 22 4 2 5 17 10 33 11 17 1 36 8 43 15 18 17 41 16 48 -2 6 -16 24 -11
24 6 0 6 -4 7 -10 4 -5 -3 -10 -1 -10 4 0 10 5 12 25 11 3 0 18 6 34 15 28 14
66 11 56 -4 -2 -4 2 -8 10 -8 20 0 19 7 -2 23 -17 13 -17 13 2 15 11 1 23 1
28 0 4 0 7 5 7 12 0 8 3 7 10 -3 8 -13 11 -13 22 -1 10 10 10 12 1 7 -7 -4
-13 -2 -13 4 0 7 6 10 14 7 7 -3 19 0 25 6 7 7 15 12 19 12 4 1 17 6 29 13 12
7 33 16 47 22 21 8 24 7 20 -8 -2 -9 1 -7 7 5 12 23 33 30 42 16 2 -5 2 -3 1
4 -4 17 13 26 19 11 4 -9 6 -8 6 3 1 21 43 40 62 28 19 -12 29 -11 29 2 0 5
-4 8 -9 4 -5 -3 -12 -1 -15 4 -8 13 20 21 32 9 7 -7 17 -5 33 6 13 9 18 16 12
16 -7 0 -15 -4 -18 -10 -8 -13 -25 -13 -25 -1 0 10 39 27 53 23 4 -1 7 3 7 8
0 6 4 10 10 10 5 0 9 -5 7 -12 -1 -6 7 -13 18 -15 15 -2 16 -1 5 5 -8 4 -16
16 -18 27 -2 17 2 15 25 -10 17 -19 24 -23 20 -11 -6 15 -3 18 17 14 24 -5 30
12 11 29 -4 4 -5 2 -1 -4 5 -9 0 -13 -13 -13 -12 0 -24 0 -28 -1 -4 0 -9 4
-11 10 -2 6 3 8 12 5 10 -4 18 0 22 10 3 9 10 13 15 10 5 -3 12 2 15 10 3 9
10 16 15 16 6 0 5 -8 -1 -19 -5 -11 -6 -22 -2 -25 5 -3 9 0 10 7 3 35 22 78
22 51 0 -5 10 -10 21 -11 20 -2 20 -1 4 11 -13 9 -15 15 -7 20 7 4 12 2 12 -3
0 -6 7 -11 15 -11 8 0 15 5 15 11 0 5 -4 7 -10 4 -5 -3 -10 -3 -10 0 0 11 44
44 58 45 6 0 12 5 12 11 0 5 4 8 9 5 5 -3 12 1 15 10 3 8 14 14 23 13 31 -3
43 1 43 12 0 8 -5 8 -15 -1 -10 -8 -15 -9 -15 -1 0 6 11 13 24 17 13 3 26 14
29 25 3 11 9 18 14 17 4 -1 20 9 34 22 30 29 68 60 73 60 2 0 3 -7 2 -16 0 -9
5 -18 12 -20 7 -1 8 0 2 3 -5 2 -10 8 -10 13 0 10 38 20 43 11 2 -3 2 -1 1 6
-2 7 4 19 13 28 14 14 16 14 28 -1 9 -13 14 -14 20 -4 5 8 4 11 -2 7 -6 -4
-14 0 -17 8 -4 13 -10 14 -26 5 -11 -6 -20 -8 -20 -5 0 10 75 74 88 75 7 0 11
4 8 9 -3 5 1 14 8 20 11 9 16 9 23 -2 6 -11 11 -10 26 5 9 10 13 18 9 18 -4 0
-13 -5 -20 -12 -9 -9 -12 -9 -12 0 0 7 9 21 20 32 23 23 38 27 20 5 -7 -9 -8
-15 -2 -15 5 0 15 14 21 31 6 17 14 28 19 25 11 -6 52 21 52 35 0 5 -5 9 -11
9 -5 0 -7 -5 -3 -12 5 -7 3 -8 -6 -3 -8 5 -11 4 -7 -2 4 -6 0 -13 -8 -17 -26
-9 -17 8 24 48 23 22 46 36 54 33 7 -3 14 1 15 9 1 8 3 21 4 30 1 10 8 14 20
11 16 -5 17 -3 7 9 -18 22 -4 28 17 7 17 -17 18 -17 10 2 -4 11 -8 23 -9 26
-2 5 14 27 78 105 14 17 26 23 37 19 10 -4 15 -11 12 -16 -3 -5 0 -9 5 -9 18
0 12 18 -11 34 -19 14 -20 16 -5 16 10 0 16 4 12 9 -8 13 12 24 28 14 16 -10
41 -14 32 -5 -4 4 -10 7 -13 7 -4 0 -13 4 -19 8 -9 6 -6 18 14 47 14 22 29 40
33 40 4 0 11 12 14 26 5 20 11 24 29 19 12 -4 18 -3 12 2 -32 26 -2 53 37 32
l23 -12 -20 20 c-11 11 -24 18 -29 15 -5 -3 -6 0 -2 6 4 7 16 12 27 12 11 0
18 -4 14 -9 -3 -5 -1 -12 4 -15 5 -4 8 1 7 11 -2 9 -11 19 -21 23 -14 5 -15 9
-6 14 7 5 18 3 24 -3 14 -14 27 -14 27 0 0 5 -4 8 -9 5 -11 -7 -36 22 -27 31
4 4 12 1 17 -7 8 -11 9 -10 4 8 -4 15 1 33 17 55 13 17 22 34 20 37 -1 3 4 5
11 5 12 0 27 14 27 28 0 4 -5 7 -11 7 -5 0 -7 -4 -4 -10 3 -5 1 -10 -4 -10
-16 0 -13 16 4 30 8 7 15 19 15 26 0 8 5 14 10 14 13 0 13 -13 -1 -27 -7 -7
-6 -12 5 -16 11 -4 13 -1 9 10 -4 11 -3 14 6 9 16 -10 10 16 -8 30 -10 8 -11
13 -3 18 7 4 12 2 12 -3 0 -6 5 -11 10 -11 7 0 7 6 1 19 -11 19 6 81 22 81 4
0 3 -10 -3 -22 -11 -22 -10 -22 4 -4 9 11 16 24 16 29 0 4 5 5 10 2 6 -3 10
-1 10 5 0 7 -8 9 -21 5 -18 -6 -19 -5 -7 14 7 12 20 24 30 26 9 3 22 13 30 22
11 14 9 14 -14 -1 -34 -22 -37 -12 -5 15 15 13 17 17 5 13 -16 -6 -16 -4 -1
28 10 18 19 42 20 52 2 11 10 27 17 35 7 9 11 22 9 29 -3 6 0 12 6 12 6 0 11
-4 11 -10 0 -5 5 -10 11 -10 6 0 4 8 -4 20 -15 21 -12 70 4 70 5 0 9 -4 9 -9
0 -5 8 -12 17 -15 14 -6 13 -2 -4 16 -15 16 -19 28 -13 38 5 8 7 17 4 21 -2 4
4 6 14 5 10 0 16 5 14 13 -2 8 3 11 12 8 9 -4 18 -1 22 6 4 7 4 9 -1 5 -9 -9
-45 9 -45 21 0 5 10 7 23 4 19 -4 20 -3 5 6 -16 11 -16 49 0 75 5 10 9 24 14
63 1 7 4 10 8 8 4 -2 13 7 20 20 7 14 17 25 22 25 4 0 8 5 8 10 0 6 -8 5 -19
-2 -11 -7 -18 -15 -15 -19 2 -4 0 -10 -6 -14 -18 -11 -11 27 7 41 10 7 18 19
18 28 0 9 5 15 10 13 6 -1 9 -5 8 -8 -1 -3 4 -6 12 -6 9 0 7 9 -8 29 -23 31
-29 35 -21 14 3 -8 1 -17 -5 -21 -8 -4 -9 6 -5 32 3 21 7 43 8 49 1 7 8 20 16
30 8 10 10 15 3 11 -8 -5 -10 1 -7 20 7 44 13 55 25 47 8 -4 9 -3 5 5 -4 6
-12 9 -17 6 -9 -6 -7 30 3 40 3 3 4 19 2 35 -2 17 1 30 7 30 6 0 7 -6 3 -12
-4 -7 -4 -10 1 -6 4 4 17 3 29 -3 21 -10 21 -10 1 6 -11 9 -19 21 -17 26 1 6
-2 8 -7 5 -6 -4 -9 18 -8 53 2 54 15 81 26 50 2 -6 -1 -9 -6 -6 -5 3 -10 0
-10 -8 0 -20 13 -19 21 1 4 9 1 23 -6 32 -13 15 -20 192 -8 192 3 0 15 7 26
16 18 14 18 15 -3 4 -27 -13 -24 -23 -29 120 -2 58 -5 117 -8 132 -2 16 0 30
5 34 13 7 32 45 22 43 -32 -5 -33 -3 -35 78 0 24 -4 41 -7 38 -4 -2 -7 8 -8
23 0 15 -3 42 -7 61 -5 18 -4 31 1 28 4 -3 17 1 28 9 10 8 14 14 8 14 -7 0
-15 -5 -19 -12 -5 -7 -11 -5 -21 7 -17 25 -17 36 2 29 8 -4 12 -11 9 -16 -4
-6 3 -5 15 1 23 13 29 23 9 16 -18 -6 -47 18 -51 41 -1 10 -5 24 -9 29 -3 6
-5 21 -4 35 1 14 -1 27 -5 30 -4 3 -10 22 -13 44 -4 21 -9 43 -13 49 -3 5 1
15 10 22 14 10 13 13 -6 25 -20 12 -21 12 -8 -3 9 -11 10 -17 2 -17 -12 0 -14
10 -13 48 1 12 -4 22 -10 22 -6 0 -8 3 -5 7 4 3 2 12 -5 20 -6 7 -8 16 -5 20
4 3 3 11 -2 17 -4 6 -13 26 -20 45 -8 26 -8 37 2 49 10 13 9 15 -5 9 -20 -7
-25 9 -5 16 7 3 5 6 -6 6 -11 1 -20 12 -24 31 -3 17 -9 33 -14 36 -4 2 -6 11
-2 19 3 9 -1 15 -8 15 -11 0 -11 2 0 9 11 7 12 13 3 23 -8 10 -8 18 -2 26 7 9
7 9 -2 2 -19 -15 -32 -12 -18 5 7 8 9 15 4 15 -5 0 -3 4 5 9 8 5 16 17 17 25
1 9 -2 14 -7 10 -5 -3 -7 -9 -4 -14 3 -4 -2 -11 -11 -14 -8 -3 -12 -11 -8 -17
5 -8 3 -9 -5 -5 -7 5 -10 10 -7 13 3 3 -2 12 -10 20 -9 9 -12 23 -8 35 4 14 2
18 -5 14 -6 -4 -11 0 -11 8 0 9 -4 16 -9 16 -6 0 -8 9 -6 20 2 11 0 20 -5 20
-5 0 -17 17 -26 38 -10 20 -24 45 -32 55 -8 9 -12 17 -8 17 4 0 -2 12 -12 28
-17 23 -18 30 -7 45 7 9 17 17 23 17 6 0 13 4 16 9 4 5 -3 7 -15 4 -11 -3 -23
-12 -26 -19 -7 -19 -19 -18 -27 2 -3 8 -2 13 3 10 10 -6 25 24 16 32 -3 3 -5
0 -5 -6 0 -19 -28 -14 -40 8 -6 11 -7 20 -3 20 4 0 1 5 -9 10 -10 6 -14 18
-11 32 4 19 3 20 -6 8 -9 -13 -11 -13 -11 3 0 9 -3 17 -8 17 -4 0 -13 9 -19
20 -9 14 -10 21 -1 26 7 5 8 3 3 -6 -5 -9 -4 -11 3 -6 8 5 5 16 -10 37 -27 35
-37 39 -14 4 10 -15 12 -25 5 -25 -6 0 -13 9 -16 20 -3 11 -9 20 -14 20 -5 0
-8 3 -7 8 2 4 -9 21 -24 37 -27 29 -28 51 -1 41 8 -3 11 -1 8 5 -4 5 -15 7
-25 4 -10 -3 -22 0 -26 6 -4 7 -3 9 2 6 6 -3 16 -1 24 5 12 8 11 9 -3 4 -21
-7 -77 45 -77 71 0 8 -4 11 -10 8 -5 -3 -10 1 -10 10 0 9 4 14 8 11 5 -3 9 1
9 9 0 8 -4 12 -8 10 -4 -3 -9 2 -13 10 -3 8 -10 15 -16 15 -6 0 -4 -7 5 -16 9
-9 14 -19 11 -22 -3 -3 -15 6 -27 19 -11 13 -29 34 -39 46 -10 12 -16 24 -13
27 4 3 -1 6 -11 6 -9 0 -14 5 -11 10 3 6 1 10 -5 10 -7 0 -9 9 -6 23 3 12 3
16 0 10 -3 -7 -10 -13 -15 -13 -6 0 -7 5 -4 10 3 6 1 10 -5 10 -13 0 -82 62
-75 68 2 3 -3 11 -13 19 -9 8 -11 11 -3 7 9 -5 12 -3 7 5 -4 6 -11 9 -16 6
-11 -7 -76 53 -72 66 1 5 -3 9 -9 9 -13 0 -49 38 -49 52 0 4 -5 8 -11 8 -5 0
-7 -6 -3 -12 4 -7 -2 -4 -14 6 -12 11 -22 27 -22 38 0 10 -5 18 -11 18 -5 0
-7 -5 -3 -12 5 -7 3 -8 -5 -4 -7 5 -10 15 -6 23 4 12 3 13 -8 5 -14 -12 -27
-6 -27 12 0 6 5 4 11 -4 9 -13 10 -13 6 0 -2 8 -11 14 -21 12 -11 -2 -16 4
-16 20 0 17 -2 20 -9 9 -8 -12 -15 -10 -40 11 -16 14 -27 29 -24 32 4 3 1 6
-6 6 -7 0 -27 11 -45 25 -18 14 -38 25 -44 25 -6 0 -14 5 -17 10 -10 17 17 7
53 -18 17 -13 32 -19 32 -15 0 11 -59 46 -83 50 -29 5 -77 33 -77 45 0 6 10 3
21 -8 22 -19 22 -19 8 3 -8 14 -20 21 -30 18 -9 -3 -23 0 -30 8 -14 14 -22 17
-39 17 -6 0 -10 6 -9 13 4 34 -22 59 -37 35 -4 -6 -3 -8 3 -5 6 4 16 0 23 -8
9 -11 8 -14 -9 -12 -12 1 -21 4 -21 8 0 4 -9 10 -19 14 -11 3 -36 17 -55 30
-20 13 -36 22 -36 19 0 -3 -7 2 -16 10 -8 9 -20 14 -25 10 -5 -3 -12 2 -15 10
-3 9 -9 14 -13 12 -4 -3 -25 5 -46 18 -28 15 -39 28 -37 42 2 17 1 17 -8 2 -9
-14 -16 -15 -40 -6 -30 10 -41 28 -18 28 7 0 2 7 -10 16 -13 9 -26 13 -29 10
-4 -3 -1 -6 6 -6 7 0 9 -5 5 -12 -5 -7 -3 -8 6 -3 8 5 11 4 6 -3 -8 -13 -36
-5 -37 12 -1 6 -2 17 -3 23 -1 14 -8 15 -31 7 -8 -3 -12 -11 -8 -18 4 -6 -1
-5 -10 3 -9 7 -17 10 -17 6 0 -4 -11 0 -25 9 -13 9 -31 16 -40 16 -8 0 -15 4
-15 10 0 5 -6 7 -13 5 -7 -3 -20 7 -30 22 -18 28 -18 28 -13 3 3 -14 3 -19 0
-12 -3 6 -10 10 -14 7 -11 -7 -32 30 -22 39 3 4 -2 4 -12 0 -14 -5 -15 -9 -5
-15 24 -15 3 -18 -24 -4 -15 8 -29 14 -30 13 -11 -2 -87 25 -83 30 2 4 -2 16
-10 27 -8 10 -14 14 -14 8 0 -7 5 -15 10 -18 6 -4 8 -11 5 -16 -9 -13 -26 -11
-22 2 1 6 -4 14 -12 17 -8 3 -11 0 -7 -7 4 -6 2 -11 -3 -11 -6 0 -11 4 -11 9
0 5 -8 8 -17 7 -10 -2 -31 1 -48 6 -16 6 -38 10 -48 10 -14 -1 -16 2 -7 13 8
9 8 15 0 20 -6 3 -8 10 -5 15 3 5 1 11 -4 14 -10 7 -9 -13 2 -31 10 -16 -30
-28 -47 -14 -7 6 -17 7 -21 3 -5 -4 -5 1 -2 10 4 12 2 15 -8 11 -8 -3 -12 -9
-9 -14 3 -5 -2 -6 -10 -3 -9 3 -16 11 -16 18 0 8 -2 8 -8 0 -8 -12 -42 -15
-42 -3 0 4 5 11 10 14 6 3 10 1 10 -6 0 -7 3 -10 6 -6 12 12 -7 28 -20 18 -7
-6 -17 -7 -21 -3 -5 4 -5 1 -1 -5 8 -15 -20 -18 -28 -4 -3 5 -14 7 -24 4 -12
-3 -22 3 -28 18 -9 20 -11 21 -17 5 -4 -10 -3 -15 3 -11 6 3 10 2 10 -4 0 -5
-9 -9 -20 -8 -11 1 -20 4 -20 8 0 3 -17 6 -37 7 -31 0 -77 4 -148 11 -5 1 -4
6 3 13 7 7 12 16 12 21 0 5 -9 -2 -20 -15 -14 -19 -26 -24 -45 -21 -13 3 -22
9 -19 14 3 5 -5 5 -18 1 -13 -5 -49 -8 -81 -8 -46 1 -62 5 -74 21 -15 20 -15
20 -9 0z m-194 -19 c0 -3 -4 -8 -10 -11 -5 -3 -10 -1 -10 4 0 6 5 11 10 11 6
0 10 -2 10 -4z m-846 -165 c3 -5 -1 -11 -9 -14 -9 -4 -12 -1 -8 9 6 16 10 17
17 5z m2353 -81 c-1 -12 -5 -16 -10 -11 -5 5 -6 14 -3 20 11 16 15 13 13 -9z
m-3437 -536 c0 -3 -6 -12 -14 -19 -17 -17 -30 -7 -15 12 12 13 29 18 29 7z
m-281 -281 c-6 -7 -15 -13 -20 -13 -5 0 -6 6 -3 13 3 8 11 14 19 14 11 0 12
-4 4 -14z m-484 -673 c3 -5 1 -10 -4 -10 -6 0 -11 5 -11 10 0 6 2 10 4 10 3 0
8 -4 11 -10z m5960 -310 c3 -5 1 -10 -4 -10 -6 0 -11 5 -11 10 0 6 2 10 4 10
3 0 8 -4 11 -10z m-6265 -564 c0 -11 -19 -15 -25 -6 -3 5 1 10 9 10 9 0 16 -2
16 -4z m6500 -376 c0 -5 -4 -10 -10 -10 -5 0 -10 5 -10 10 0 6 5 10 10 10 6 0
10 -4 10 -10z m-6540 -790 c0 -5 -7 -7 -15 -4 -8 4 -12 10 -9 15 6 11 24 2 24
-11z m6475 -199 c3 -5 1 -12 -5 -16 -5 -3 -10 1 -10 9 0 18 6 21 15 7z m-68
-276 c0 -8 -4 -12 -9 -9 -4 3 -8 9 -8 15 0 5 4 9 8 9 5 0 9 -7 9 -15z m-687
-1215 c0 -5 -5 -10 -11 -10 -5 0 -7 5 -4 10 3 6 8 10 11 10 2 0 4 -4 4 -10z
m-310 -319 c0 -12 -20 -25 -27 -18 -7 7 6 27 18 27 5 0 9 -4 9 -9z m-1730
-771 c0 -5 -4 -10 -10 -10 -5 0 -10 5 -10 10 0 6 5 10 10 10 6 0 10 -4 10 -10z"/>
		<path d="M3548 6813 c6 -2 10 -8 8 -12 -3 -4 4 -7 15 -7 19 0 19 1 3 13 -10 7
-23 13 -28 12 -6 0 -5 -3 2 -6z"/>
		<path d="M3610 6811 c0 -6 4 -13 10 -16 6 -3 7 1 4 9 -7 18 -14 21 -14 7z"/>
		<path d="M4006 6805 c-11 -8 -15 -15 -9 -15 6 0 16 7 23 15 16 19 11 19 -14 0z"/>
		<path d="M4190 6816 c0 -2 8 -10 18 -17 15 -13 16 -12 3 4 -13 16 -21 21 -21
13z"/>
		<path d="M3230 6800 c-13 -8 -12 -10 3 -10 9 0 17 5 17 10 0 12 -1 12 -20 0z"/>
		<path d="M3516 6802 c-3 -5 1 -9 9 -9 8 0 12 4 9 9 -3 4 -7 8 -9 8 -2 0 -6 -4
-9 -8z"/>
		<path d="M3685 6800 c-4 -6 1 -7 11 -3 13 5 15 3 9 -7 -5 -9 -4 -11 4 -6 6 4
9 12 6 17 -8 12 -22 12 -30 -1z"/>
		<path d="M3788 6797 c-10 -6 -9 -8 3 -4 9 3 20 2 25 -3 5 -5 21 -11 35 -14 22
-3 26 -1 22 15 -3 10 -9 19 -14 19 -5 0 -6 -6 -3 -14 4 -11 0 -13 -15 -9 -11
3 -19 9 -16 12 6 11 -22 9 -37 -2z"/>
		<path d="M3885 6800 c-3 -6 1 -7 9 -4 18 7 21 14 7 14 -6 0 -13 -4 -16 -10z"/>
		<path d="M3971 6794 c0 -11 3 -14 6 -6 3 7 2 16 -1 19 -3 4 -6 -2 -5 -13z"/>
		<path d="M3923 6785 c0 -8 4 -12 9 -9 5 3 6 10 3 15 -9 13 -12 11 -12 -6z"/>
		<path d="M2773 6775 c0 -8 4 -12 9 -9 5 3 6 10 3 15 -9 13 -12 11 -12 -6z"/>
		<path d="M2890 6779 c0 -5 5 -7 10 -4 6 3 10 8 10 11 0 2 -4 4 -10 4 -5 0 -10
-5 -10 -11z"/>
		<path d="M2965 6778 c11 -6 23 -16 27 -22 5 -8 8 -7 8 1 0 7 -9 17 -19 23 -27
14 -41 12 -16 -2z"/>
		<path d="M3148 6783 c7 -3 16 -2 19 1 4 3 -2 6 -13 5 -11 0 -14 -3 -6 -6z"/>
		<path d="M4125 6780 c-3 -6 1 -7 9 -4 18 7 21 14 7 14 -6 0 -13 -4 -16 -10z"/>
		<path d="M2870 6775 c0 -5 5 -17 10 -25 5 -8 10 -10 10 -5 0 6 -5 17 -10 25
-5 8 -10 11 -10 5z"/>
		<path d="M2930 6776 c0 -2 7 -9 15 -16 9 -7 15 -8 15 -2 0 5 -7 12 -15 16 -8
3 -15 4 -15 2z"/>
		<path d="M3989 6768 c-11 -8 -11 -9 2 -5 9 3 22 0 28 -6 8 -8 11 -8 11 0 0 16
-25 23 -41 11z"/>
		<path d="M2667 6759 c7 -7 15 -10 18 -7 3 3 -2 9 -12 12 -14 6 -15 5 -6 -5z"/>
		<path d="M2805 6760 c-3 -5 -1 -10 4 -10 6 0 11 5 11 10 0 6 -2 10 -4 10 -3 0
-8 -4 -11 -10z"/>
		<path d="M4316 6761 c-3 -5 2 -15 12 -22 15 -12 16 -12 5 2 -7 9 -10 19 -6 22
3 4 4 7 0 7 -3 0 -8 -4 -11 -9z"/>
		<path d="M4175 6750 c-3 -6 1 -7 9 -4 18 7 21 14 7 14 -6 0 -13 -4 -16 -10z"/>
		<path d="M2750 6743 c0 -5 5 -15 10 -23 7 -12 9 -10 7 8 -1 19 -17 33 -17 15z"/>
		<path d="M4266 6737 c3 -10 9 -15 12 -12 3 3 0 11 -7 18 -10 9 -11 8 -5 -6z"/>
		<path d="M4356 6741 c-3 -5 1 -14 8 -20 10 -9 16 -9 21 -1 4 6 1 9 -7 8 -7 -2
-12 3 -10 10 2 14 -4 16 -12 3z"/>
		<path d="M4420 6746 c0 -2 8 -10 18 -17 15 -13 16 -12 3 4 -13 16 -21 21 -21
13z"/>
		<path d="M2790 6730 c-9 -6 -10 -10 -3 -10 6 0 15 5 18 10 8 12 4 12 -15 0z"/>
		<path d="M4293 6719 c-2 -23 3 -25 10 -4 4 8 3 16 -1 19 -4 3 -9 -4 -9 -15z"/>
		<path d="M2633 6715 c0 -8 4 -15 9 -15 4 0 8 4 8 9 0 6 -4 12 -8 15 -5 3 -9
-1 -9 -9z"/>
		<path d="M4188 6723 c7 -3 16 -2 19 1 4 3 -2 6 -13 5 -11 0 -14 -3 -6 -6z"/>
		<path d="M4315 6709 c-4 -6 -5 -12 -2 -15 2 -3 7 2 10 11 7 17 1 20 -8 4z"/>
		<path d="M4415 6711 c-3 -5 -2 -12 3 -15 5 -3 9 1 9 9 0 17 -3 19 -12 6z"/>
		<path d="M4335 6700 c-3 -6 1 -7 9 -4 18 7 21 14 7 14 -6 0 -13 -4 -16 -10z"/>
		<path d="M2475 6680 c1 -11 5 -23 10 -27 4 -5 5 -3 2 4 -4 6 -2 13 4 15 7 2 6
8 -3 16 -12 9 -14 8 -13 -8z"/>
		<path d="M2435 6681 c-3 -5 -2 -12 3 -15 5 -3 9 1 9 9 0 17 -3 19 -12 6z"/>
		<path d="M2567 6676 c-4 -10 -1 -13 9 -9 7 3 14 9 14 14 0 14 -17 10 -23 -5z"/>
		<path d="M4490 6678 c0 -3 9 -6 20 -5 11 1 20 5 20 9 0 3 -9 6 -20 5 -11 -1
-20 -5 -20 -9z"/>
		<path d="M2533 6665 c0 -8 4 -12 9 -9 5 3 6 10 3 15 -9 13 -12 11 -12 -6z"/>
		<path d="M2506 6653 c-6 -14 -5 -15 5 -6 7 7 10 15 7 18 -3 3 -9 -2 -12 -12z"/>
		<path d="M4486 6648 c3 -5 10 -6 15 -3 13 9 11 12 -6 12 -8 0 -12 -4 -9 -9z"/>
		<path d="M4525 6649 c-11 -16 -1 -19 13 -3 7 8 8 14 3 14 -5 0 -13 -5 -16 -11z"/>
		<path d="M2213 6625 c0 -8 4 -12 9 -9 5 3 6 10 3 15 -9 13 -12 11 -12 -6z"/>
		<path d="M4632 6614 c10 -10 20 -16 22 -13 3 3 -5 11 -17 18 -21 13 -21 12 -5
-5z"/>
		<path d="M4706 6622 c-3 -5 1 -9 9 -9 8 0 12 4 9 9 -3 4 -7 8 -9 8 -2 0 -6 -4
-9 -8z"/>
		<path d="M4756 6607 c3 -10 9 -15 12 -12 3 3 0 11 -7 18 -10 9 -11 8 -5 -6z"/>
		<path d="M2300 6598 c-12 -8 -12 -9 2 -5 9 3 19 1 22 -6 3 -9 5 -9 5 0 1 18
-13 23 -29 11z"/>
		<path d="M2355 6600 c-3 -6 1 -7 9 -4 18 7 21 14 7 14 -6 0 -13 -4 -16 -10z"/>
		<path d="M4670 6595 c0 -8 4 -15 8 -15 5 0 9 7 9 15 0 8 -4 15 -9 15 -4 0 -8
-7 -8 -15z"/>
		<path d="M4716 6573 c-6 -14 -5 -15 5 -6 7 7 10 15 7 18 -3 3 -9 -2 -12 -12z"/>
		<path d="M4744 6564 c-18 -14 -18 -14 6 -3 31 14 36 19 24 19 -6 0 -19 -7 -30
-16z"/>
		<path d="M4890 6560 c0 -5 5 -10 11 -10 5 0 7 5 4 10 -3 6 -8 10 -11 10 -2 0
-4 -4 -4 -10z"/>
		<path d="M1985 6540 c-3 -6 1 -7 9 -4 18 7 21 14 7 14 -6 0 -13 -4 -16 -10z"/>
		<path d="M2053 6535 c0 -8 4 -12 9 -9 5 3 6 10 3 15 -9 13 -12 11 -12 -6z"/>
		<path d="M4856 6538 c3 -5 10 -6 15 -3 13 9 11 12 -6 12 -8 0 -12 -4 -9 -9z"/>
		<path d="M2111 6519 c-2 -26 10 -29 41 -13 17 9 28 18 25 21 -3 2 -17 -3 -30
-12 -24 -15 -26 -15 -30 2 -4 14 -5 14 -6 2z"/>
		<path d="M1970 6500 c0 -5 5 -10 11 -10 5 0 7 5 4 10 -3 6 -8 10 -11 10 -2 0
-4 -4 -4 -10z"/>
		<path d="M2062 6497 c10 -8 14 -18 10 -23 -4 -4 1 -2 11 5 9 7 17 19 16 25 0
7 -2 6 -6 -1 -3 -10 -10 -10 -26 -2 -20 9 -20 9 -5 -4z"/>
		<path d="M4876 6502 c-2 -4 4 -9 15 -9 11 -1 17 2 14 8 -7 11 -22 12 -29 1z"/>
		<path d="M4970 6490 c-9 -6 -10 -10 -3 -10 6 0 15 5 18 10 8 12 4 12 -15 0z"/>
		<path d="M1915 6481 c-3 -5 -2 -12 3 -15 5 -3 9 1 9 9 0 17 -3 19 -12 6z"/>
		<path d="M2000 6480 c-9 -6 -10 -10 -3 -10 6 0 15 5 18 10 8 12 4 12 -15 0z"/>
		<path d="M4944 6473 c4 -7 16 -18 26 -23 16 -9 18 -8 14 5 -4 9 -9 13 -12 11
-3 -3 -12 0 -20 7 -13 9 -14 9 -8 0z"/>
		<path d="M4995 6470 c-3 -5 -1 -10 4 -10 6 0 11 5 11 10 0 6 -2 10 -4 10 -3 0
-8 -4 -11 -10z"/>
		<path d="M2017 6463 c-4 -3 -7 -11 -7 -17 0 -6 5 -5 12 2 6 6 9 14 7 17 -3 3
-9 2 -12 -2z"/>
		<path d="M1983 6441 c0 -11 5 -18 9 -15 4 3 5 11 1 19 -7 21 -12 19 -10 -4z"/>
		<path d="M5006 6441 c-3 -5 2 -8 12 -7 10 0 16 -5 14 -14 -3 -12 -1 -13 10 -2
11 11 10 14 -2 22 -19 12 -27 12 -34 1z"/>
		<path d="M5108 6436 c3 -6 7 -17 8 -24 4 -27 12 -22 11 6 -1 16 -7 29 -14 29
-7 0 -9 -5 -5 -11z"/>
		<path d="M1881 6421 c-8 -5 -9 -11 -3 -15 5 -3 12 1 16 9 6 17 6 18 -13 6z"/>
		<path d="M1927 6416 c-4 -10 -1 -13 8 -9 8 3 12 9 9 14 -7 12 -11 11 -17 -5z"/>
		<path d="M5150 6420 c0 -5 5 -10 11 -10 5 0 7 5 4 10 -3 6 -8 10 -11 10 -2 0
-4 -4 -4 -10z"/>
		<path d="M5066 6409 c3 -5 10 -9 16 -9 6 0 17 -8 25 -17 13 -16 13 -16 4 3 -6
12 -20 24 -31 27 -11 3 -18 1 -14 -4z"/>
		<path d="M5137 6383 c-4 -3 -7 -11 -7 -17 0 -6 5 -5 12 2 6 6 9 14 7 17 -3 3
-9 2 -12 -2z"/>
		<path d="M5160 6370 c-6 -11 -8 -20 -6 -20 3 0 10 9 16 20 6 11 8 20 6 20 -3
0 -10 -9 -16 -20z"/>
		<path d="M1840 6359 c0 -5 5 -7 10 -4 6 3 10 8 10 11 0 2 -4 4 -10 4 -5 0 -10
-5 -10 -11z"/>
		<path d="M5179 6353 c-13 -16 -12 -17 4 -4 16 13 21 21 13 21 -2 0 -10 -8 -17
-17z"/>
		<path d="M1790 6340 c0 -5 5 -10 11 -10 5 0 7 5 4 10 -3 6 -8 10 -11 10 -2 0
-4 -4 -4 -10z"/>
		<path d="M1720 6320 c-13 -8 -12 -10 3 -10 9 0 17 5 17 10 0 12 -1 12 -20 0z"/>
		<path d="M5267 6313 c3 -7 13 -13 22 -12 10 0 11 2 3 6 -6 2 -10 8 -8 12 3 4
-1 8 -8 8 -8 0 -12 -6 -9 -14z"/>
		<path d="M1615 6300 c3 -5 8 -10 11 -10 2 0 4 5 4 10 0 6 -5 10 -11 10 -5 0
-7 -4 -4 -10z"/>
		<path d="M1730 6290 c-14 -11 -34 -17 -45 -14 -18 4 -18 4 -3 -6 14 -9 26 -6
55 15 21 14 33 25 28 25 -6 0 -21 -9 -35 -20z"/>
		<path d="M5290 6279 c0 -5 5 -7 10 -4 6 3 10 8 10 11 0 2 -4 4 -10 4 -5 0 -10
-5 -10 -11z"/>
		<path d="M1649 6268 c0 -2 -2 -11 -4 -21 -3 -15 -1 -16 11 -6 7 6 11 15 8 20
-5 9 -13 12 -15 7z"/>
		<path d="M5393 6239 c-2 -23 3 -25 10 -4 4 8 3 16 -1 19 -4 3 -9 -4 -9 -15z"/>
		<path d="M1617 6233 c5 -12 3 -14 -7 -8 -9 5 -11 4 -6 -4 4 -6 12 -9 17 -6 12
8 12 35 -1 35 -5 0 -6 -7 -3 -17z"/>
		<path d="M5365 6241 c-3 -5 -2 -12 3 -15 5 -3 9 1 9 9 0 17 -3 19 -12 6z"/>
		<path d="M1565 6220 c-16 -7 -17 -9 -3 -9 9 -1 20 4 23 9 7 11 7 11 -20 0z"/>
		<path d="M5414 6222 c4 -3 14 -7 22 -8 9 -1 13 0 10 4 -4 3 -14 7 -22 8 -9 1
-13 0 -10 -4z"/>
		<path d="M1550 6196 c0 -2 7 -9 15 -16 9 -7 15 -8 15 -2 0 5 -7 12 -15 16 -8
3 -15 4 -15 2z"/>
		<path d="M1525 6179 c-4 -6 -4 -13 -1 -16 3 -4 6 -1 6 6 0 7 5 9 12 5 7 -4 8
-3 4 4 -9 15 -13 15 -21 1z"/>
		<path d="M5516 6158 c3 -5 10 -6 15 -3 13 9 11 12 -6 12 -8 0 -12 -4 -9 -9z"/>
		<path d="M5480 6156 c0 -2 7 -7 16 -10 8 -3 12 -2 9 4 -6 10 -25 14 -25 6z"/>
		<path d="M5516 6132 c-2 -4 4 -18 13 -31 17 -22 18 -22 25 -5 4 10 4 15 0 11
-9 -9 -35 13 -28 24 3 5 3 9 0 9 -3 0 -7 -4 -10 -8z"/>
		<path d="M5570 6110 c6 -11 13 -20 16 -20 2 0 0 9 -6 20 -6 11 -13 20 -16 20
-2 0 0 -9 6 -20z"/>
		<path d="M1404 6102 c-12 -7 -11 -39 2 -50 4 -4 4 0 2 8 -3 8 -1 23 4 33 10
19 8 20 -8 9z"/>
		<path d="M1440 6096 c7 -7 14 -6 21 1 9 9 7 12 -9 10 -14 -1 -18 -5 -12 -11z"/>
		<path d="M1313 6049 c-2 -23 3 -25 10 -4 4 8 3 16 -1 19 -4 3 -9 -4 -9 -15z"/>
		<path d="M5618 6058 c6 -6 18 -8 28 -6 14 3 12 5 -9 10 -19 3 -25 2 -19 -4z"/>
		<path d="M1269 6003 c-13 -16 -12 -17 4 -4 9 7 17 15 17 17 0 8 -8 3 -21 -13z"/>
		<path d="M5670 6010 c0 -5 9 -14 20 -20 11 -6 20 -9 20 -8 0 2 -9 11 -20 21
-11 9 -20 13 -20 7z"/>
		<path d="M5745 5980 c-3 -6 1 -7 9 -4 18 7 21 14 7 14 -6 0 -13 -4 -16 -10z"/>
		<path d="M5796 5978 c3 -5 10 -6 15 -3 13 9 11 12 -6 12 -8 0 -12 -4 -9 -9z"/>
		<path d="M1260 5971 c0 -7 -4 -10 -9 -7 -5 3 -11 -1 -15 -9 -3 -8 0 -17 7 -21
7 -4 9 -4 5 1 -4 4 0 14 10 21 9 7 14 16 9 20 -4 4 -7 2 -7 -5z"/>
		<path d="M1282 5965 c4 -4 -4 -19 -18 -32 -14 -12 -21 -23 -16 -23 5 0 19 11
31 24 17 19 20 26 9 32 -7 4 -10 4 -6 -1z"/>
		<path d="M5716 5955 c4 -8 8 -15 10 -15 2 0 4 7 4 15 0 8 -4 15 -10 15 -5 0
-7 -7 -4 -15z"/>
		<path d="M1199 5928 c15 -21 31 -23 31 -6 0 6 -3 8 -7 5 -3 -4 -13 -1 -22 6
-14 11 -14 10 -2 -5z"/>
		<path d="M5754 5928 c10 -6 22 -6 26 -2 5 5 -3 10 -18 11 -22 1 -24 0 -8 -9z"/>
		<path d="M5796 5915 c-3 -8 -1 -15 4 -15 6 0 10 7 10 15 0 8 -2 15 -4 15 -2 0
-6 -7 -10 -15z"/>
		<path d="M1130 5900 c0 -5 5 -10 11 -10 5 0 7 5 4 10 -3 6 -8 10 -11 10 -2 0
-4 -4 -4 -10z"/>
		<path d="M1185 5900 c-5 -8 -4 -11 2 -7 6 4 14 0 17 -9 5 -12 2 -15 -11 -10
-15 6 -16 5 -5 -5 19 -20 35 3 19 26 -11 14 -16 15 -22 5z"/>
		<path d="M5766 5902 c-6 -10 53 -57 60 -49 3 3 -8 13 -25 23 -16 10 -28 21
-25 26 3 4 3 8 0 8 -3 0 -7 -4 -10 -8z"/>
		<path d="M5830 5881 c0 -6 4 -13 10 -16 6 -3 7 1 4 9 -7 18 -14 21 -14 7z"/>
		<path d="M1150 5860 c0 -5 5 -10 10 -10 6 0 10 5 10 10 0 6 -4 10 -10 10 -5 0
-10 -4 -10 -10z"/>
		<path d="M5860 5866 c0 -2 8 -10 18 -17 15 -13 16 -12 3 4 -13 16 -21 21 -21
13z"/>
		<path d="M1103 5837 c-3 -6 -1 -7 5 -3 5 3 12 1 14 -6 3 -8 6 -7 10 3 7 17
-19 22 -29 6z"/>
		<path d="M5856 5837 c3 -10 9 -15 12 -12 3 3 0 11 -7 18 -10 9 -11 8 -5 -6z"/>
		<path d="M5873 5811 c-12 -20 -9 -24 42 -61 18 -14 19 -13 8 1 -9 10 -9 19 -2
26 7 7 5 14 -5 22 -11 9 -16 9 -22 0 -4 -7 -3 -9 4 -5 6 3 13 2 16 -3 10 -16
-14 -24 -30 -11 -11 10 -12 16 -3 27 7 7 10 15 8 18 -3 2 -10 -4 -16 -14z"/>
		<path d="M5910 5826 c0 -2 7 -7 16 -10 8 -3 12 -2 9 4 -6 10 -25 14 -25 6z"/>
		<path d="M1097 5809 c7 -7 15 -10 18 -7 3 3 -2 9 -12 12 -14 6 -15 5 -6 -5z"/>
		<path d="M1064 5799 c-4 -7 -3 -9 4 -5 5 3 13 0 15 -6 4 -9 6 -10 6 -1 1 17
-16 25 -25 12z"/>
		<path d="M5937 5777 c-3 -8 -2 -20 3 -26 5 -9 8 -4 8 13 0 29 -3 32 -11 13z"/>
		<path d="M1058 5768 c5 -5 16 -8 23 -6 8 3 3 7 -10 11 -17 4 -21 3 -13 -5z"/>
		<path d="M1026 5762 c-3 -5 1 -9 9 -9 8 0 12 4 9 9 -3 4 -7 8 -9 8 -2 0 -6 -4
-9 -8z"/>
		<path d="M5973 5755 c0 -8 4 -12 9 -9 4 3 8 9 8 15 0 5 -4 9 -8 9 -5 0 -9 -7
-9 -15z"/>
		<path d="M5971 5714 c0 -11 3 -14 6 -6 3 7 2 16 -1 19 -3 4 -6 -2 -5 -13z"/>
		<path d="M1019 5708 c0 -2 -2 -11 -4 -21 -3 -15 -1 -16 11 -6 7 6 11 15 8 20
-5 9 -13 12 -15 7z"/>
		<path d="M980 5691 c0 -6 4 -13 10 -16 6 -3 7 1 4 9 -7 18 -14 21 -14 7z"/>
		<path d="M6010 5678 c0 -4 4 -8 9 -8 6 0 12 4 15 8 3 5 -1 9 -9 9 -8 0 -15 -4
-15 -9z"/>
		<path d="M955 5670 c-3 -5 -1 -10 4 -10 6 0 11 5 11 10 0 6 -2 10 -4 10 -3 0
-8 -4 -11 -10z"/>
		<path d="M6007 5643 c3 -7 6 -13 8 -13 2 0 5 6 8 13 3 8 -1 14 -8 14 -7 0 -11
-6 -8 -14z"/>
		<path d="M6035 5639 c-11 -16 -1 -19 13 -3 7 8 8 14 3 14 -5 0 -13 -5 -16 -11z"/>
		<path d="M919 5628 c-5 -18 -6 -39 -2 -34 4 3 12 1 18 -4 9 -7 17 -5 26 7 12
16 12 17 -2 5 -13 -10 -18 -10 -28 1 -6 8 -8 17 -4 20 3 4 3 7 0 7 -4 0 -7 -1
-8 -2z"/>
		<path d="M6070 5621 c0 -6 4 -12 8 -15 5 -3 9 1 9 9 0 8 -4 15 -9 15 -4 0 -8
-4 -8 -9z"/>
		<path d="M908 5573 c7 -3 16 -2 19 1 4 3 -2 6 -13 5 -11 0 -14 -3 -6 -6z"/>
		<path d="M877 5548 c20 -22 29 -23 37 -2 5 14 4 15 -9 4 -13 -11 -19 -8 -17
11 1 3 -6 6 -14 6 -11 0 -11 -4 3 -19z"/>
		<path d="M6100 5559 c0 -4 6 -9 13 -12 8 -3 14 0 14 7 0 7 -6 13 -14 13 -7 0
-13 -4 -13 -8z"/>
		<path d="M6117 5520 c12 -5 26 -16 31 -25 8 -16 10 -16 15 -1 4 9 1 15 -6 13
-7 -1 -11 3 -10 8 1 6 -10 11 -25 12 -25 2 -25 1 -5 -7z"/>
		<path d="M6190 5480 c0 -5 5 -10 10 -10 6 0 10 5 10 10 0 6 -4 10 -10 10 -5 0
-10 -4 -10 -10z"/>
		<path d="M6214 5434 c1 -7 6 -17 10 -21 4 -4 6 -1 4 7 -2 9 3 14 12 12 8 -2
11 0 7 4 -13 14 -35 12 -33 -2z"/>
		<path d="M754 5427 c1 -8 10 -25 19 -38 l18 -24 -13 25 c-7 14 -12 28 -13 32
0 3 -3 9 -7 13 -3 4 -6 0 -4 -8z"/>
		<path d="M6187 5409 c12 -12 25 -20 28 -17 3 3 -7 13 -22 23 l-28 17 22 -23z"/>
		<path d="M740 5365 c0 -23 -1 -29 -11 -47 -7 -14 -6 -16 6 -12 8 3 13 10 10
14 -3 4 2 10 10 14 8 3 14 13 14 23 -1 17 -2 17 -6 1 -2 -10 -8 -18 -13 -18
-4 0 -6 9 -3 20 3 11 3 20 -1 20 -3 0 -6 -7 -6 -15z"/>
		<path d="M6254 5369 c3 -15 36 -21 36 -7 0 6 -6 8 -14 5 -8 -3 -17 -2 -20 4
-2 5 -3 4 -2 -2z"/>
		<path d="M684 5319 c-3 -6 -2 -15 4 -21 6 -6 12 -6 17 3 6 8 4 10 -5 4 -10 -6
-12 -4 -7 8 7 19 2 23 -9 6z"/>
		<path d="M6313 5318 c1 -7 -4 -12 -11 -10 -8 1 -11 -2 -7 -8 5 -8 11 -8 21 1
7 6 11 15 8 20 -8 13 -14 11 -11 -3z"/>
		<path d="M657 5279 c7 -7 15 -10 18 -7 3 3 -2 9 -12 12 -14 6 -15 5 -6 -5z"/>
		<path d="M6275 5280 c3 -5 8 -10 11 -10 2 0 4 5 4 10 0 6 -5 10 -11 10 -5 0
-7 -4 -4 -10z"/>
		<path d="M6320 5286 c0 -2 8 -10 18 -17 15 -13 16 -12 3 4 -13 16 -21 21 -21
13z"/>
		<path d="M653 5245 c0 -8 4 -12 9 -9 5 3 6 10 3 15 -9 13 -12 11 -12 -6z"/>
		<path d="M686 5243 c2 -6 -2 -14 -9 -16 -7 -2 -9 -7 -6 -11 3 -3 14 4 25 16
10 12 14 18 7 15 -6 -4 -13 -4 -16 0 -2 5 -2 3 -1 -4z"/>
		<path d="M6315 5220 c-3 -5 -1 -10 4 -10 6 0 11 5 11 10 0 6 -2 10 -4 10 -3 0
-8 -4 -11 -10z"/>
		<path d="M6350 5210 c-9 -6 -10 -10 -3 -10 6 0 15 5 18 10 8 12 4 12 -15 0z"/>
		<path d="M623 5168 c3 -9 1 -19 -6 -21 -7 -2 -9 -7 -6 -11 12 -13 28 19 17 34
-8 13 -9 12 -5 -2z"/>
		<path d="M593 5123 c4 -6 2 -13 -5 -15 -8 -3 -6 -7 5 -11 23 -9 30 8 10 24 -9
8 -14 9 -10 2z"/>
		<path d="M6446 5102 c-3 -5 1 -9 9 -9 8 0 12 4 9 9 -3 4 -7 8 -9 8 -2 0 -6 -4
-9 -8z"/>
		<path d="M6380 5096 c0 -2 7 -6 15 -10 8 -3 15 -1 15 4 0 6 -7 10 -15 10 -8 0
-15 -2 -15 -4z"/>
		<path d="M526 5082 c-3 -5 1 -9 9 -9 8 0 12 4 9 9 -3 4 -7 8 -9 8 -2 0 -6 -4
-9 -8z"/>
		<path d="M6408 5057 c7 -8 8 -18 4 -22 -4 -5 -1 -5 6 -1 7 4 12 2 12 -5 0 -7
2 -10 5 -7 9 9 -6 36 -22 42 -12 5 -13 4 -5 -7z"/>
		<path d="M529 5043 c-12 -14 -12 -16 0 -8 11 6 13 4 8 -9 -4 -9 -3 -15 2 -11
6 3 9 14 8 25 -2 24 -1 24 -18 3z"/>
		<path d="M6456 5018 c3 -4 11 -5 19 -1 21 7 19 12 -4 10 -11 0 -18 -5 -15 -9z"/>
		<path d="M6476 5001 c-3 -5 2 -15 12 -22 15 -12 16 -12 5 2 -7 9 -10 19 -6 22
3 4 4 7 0 7 -3 0 -8 -4 -11 -9z"/>
		<path d="M531 4993 c-1 -17 16 -25 25 -12 4 7 3 9 -4 5 -5 -3 -13 0 -15 6 -4
9 -6 10 -6 1z"/>
		<path d="M480 4980 c-9 -6 -10 -10 -3 -10 6 0 15 5 18 10 8 12 4 12 -15 0z"/>
		<path d="M6445 4980 c3 -5 11 -10 16 -10 6 0 7 5 4 10 -3 6 -11 10 -16 10 -6
0 -7 -4 -4 -10z"/>
		<path d="M510 4956 c0 -20 17 -29 26 -15 5 8 3 9 -6 4 -10 -6 -12 -4 -7 8 3
10 2 17 -3 17 -6 0 -10 -6 -10 -14z"/>
		<path d="M6470 4950 c8 -5 20 -10 25 -10 6 0 3 5 -5 10 -8 5 -19 10 -25 10 -5
0 -3 -5 5 -10z"/>
		<path d="M460 4940 c-9 -6 -10 -10 -3 -10 6 0 15 5 18 10 8 12 4 12 -15 0z"/>
		<path d="M490 4920 c0 -5 5 -10 10 -10 6 0 10 5 10 10 0 6 -4 10 -10 10 -5 0
-10 -4 -10 -10z"/>
		<path d="M6491 4914 c0 -11 3 -14 6 -6 3 7 2 16 -1 19 -3 4 -6 -2 -5 -13z"/>
		<path d="M475 4890 c-3 -5 -1 -10 4 -10 6 0 11 5 11 10 0 6 -2 10 -4 10 -3 0
-8 -4 -11 -10z"/>
		<path d="M505 4889 c-4 -6 -5 -12 -2 -15 2 -3 7 2 10 11 7 17 1 20 -8 4z"/>
		<path d="M6519 4879 c14 -5 28 -6 32 -2 4 4 -6 9 -24 10 -30 1 -31 1 -8 -8z"/>
		<path d="M6517 4846 c-4 -9 -3 -15 2 -11 5 3 11 0 13 -7 3 -7 7 -5 11 6 4 9 3
15 -2 11 -5 -3 -11 0 -13 7 -3 7 -7 5 -11 -6z"/>
		<path d="M470 4840 c0 -5 5 -10 11 -10 5 0 7 5 4 10 -3 6 -8 10 -11 10 -2 0
-4 -4 -4 -10z"/>
		<path d="M414 4818 c-3 -5 0 -7 6 -6 7 2 14 -5 15 -15 2 -11 7 -22 11 -25 4
-4 4 0 2 8 -3 8 -2 22 3 30 5 12 2 16 -13 16 -10 0 -22 -4 -24 -8z"/>
		<path d="M417 4759 c-5 -20 17 -39 30 -25 4 3 -1 6 -9 6 -11 0 -14 6 -11 20 3
11 3 20 0 20 -2 0 -7 -9 -10 -21z"/>
		<path d="M386 4718 c3 -4 9 -8 15 -8 5 0 9 4 9 8 0 5 -7 9 -15 9 -8 0 -12 -4
-9 -9z"/>
		<path d="M6591 4674 c0 -11 3 -14 6 -6 3 7 2 16 -1 19 -3 4 -6 -2 -5 -13z"/>
		<path d="M6633 4655 c0 -8 4 -12 9 -9 5 3 6 10 3 15 -9 13 -12 11 -12 -6z"/>
		<path d="M334 4646 c1 -8 5 -18 8 -22 4 -3 5 1 4 10 -1 8 -5 18 -8 22 -4 3 -5
-1 -4 -10z"/>
		<path d="M390 4635 c-11 -13 -10 -14 4 -9 9 3 16 10 16 15 0 13 -6 11 -20 -6z"/>
		<path d="M6590 4640 c0 -6 7 -10 15 -10 8 0 15 2 15 4 0 2 -7 6 -15 10 -8 3
-15 1 -15 -4z"/>
		<path d="M6630 4620 c0 -5 5 -10 11 -10 5 0 7 5 4 10 -3 6 -8 10 -11 10 -2 0
-4 -4 -4 -10z"/>
		<path d="M354 4588 c-4 -6 -3 -8 4 -4 5 3 12 1 14 -6 3 -8 6 -9 11 -1 4 6 0
13 -8 17 -8 3 -17 0 -21 -6z"/>
		<path d="M6655 4570 c-4 -6 -10 -8 -15 -5 -5 3 -12 0 -16 -6 -5 -8 -3 -9 6 -4
9 5 10 2 5 -14 -4 -14 -2 -21 6 -21 7 0 9 3 6 7 -4 3 0 17 8 30 9 13 13 23 11
23 -3 0 -8 -5 -11 -10z"/>
		<path d="M300 4565 c0 -2 6 -8 13 -14 10 -8 14 -7 14 2 0 8 -6 14 -14 14 -7 0
-13 -1 -13 -2z"/>
		<path d="M340 4520 c10 -6 11 -10 3 -10 -7 0 -13 -5 -13 -10 0 -6 8 -5 20 2
14 9 16 14 7 20 -7 4 -16 8 -22 8 -5 0 -3 -5 5 -10z"/>
		<path d="M6666 4519 c2 -4 13 -7 24 -6 23 2 17 10 -10 12 -10 1 -17 -2 -14 -6z"/>
		<path d="M6655 4490 c10 -11 21 -17 25 -15 5 3 11 0 13 -5 3 -6 4 -5 3 2 -2 7
-9 12 -15 10 -6 -1 -14 5 -17 13 -4 8 -11 15 -17 15 -5 0 -2 -9 8 -20z"/>
		<path d="M295 4469 c-4 -6 -5 -12 -2 -15 2 -3 7 2 10 11 7 17 1 20 -8 4z"/>
		<path d="M6650 4461 c0 -5 5 -13 10 -16 6 -3 10 -2 10 4 0 5 -4 13 -10 16 -5
3 -10 2 -10 -4z"/>
		<path d="M6696 4438 c3 -5 10 -6 15 -3 13 9 11 12 -6 12 -8 0 -12 -4 -9 -9z"/>
		<path d="M255 4400 c3 -5 8 -10 11 -10 2 0 4 5 4 10 0 6 -5 10 -11 10 -5 0 -7
-4 -4 -10z"/>
		<path d="M6710 4396 c7 -7 13 -7 20 0 6 6 3 10 -10 10 -13 0 -16 -4 -10 -10z"/>
		<path d="M308 4393 c7 -3 16 -2 19 1 4 3 -2 6 -13 5 -11 0 -14 -3 -6 -6z"/>
		<path d="M6697 4379 c7 -7 15 -10 18 -7 3 3 -2 9 -12 12 -14 6 -15 5 -6 -5z"/>
		<path d="M6711 4335 c0 -5 3 -16 8 -23 7 -11 9 -10 14 3 4 9 3 14 -2 10 -5 -3
-12 1 -14 7 -3 7 -6 9 -6 3z"/>
		<path d="M287 4319 c7 -7 15 -10 18 -7 3 3 -2 9 -12 12 -14 6 -15 5 -6 -5z"/>
		<path d="M264 4299 c-4 -7 -3 -9 4 -5 5 3 13 0 15 -6 4 -9 6 -10 6 -1 1 17
-16 25 -25 12z"/>
		<path d="M6721 4280 c-11 -7 -10 -40 1 -40 5 0 8 8 6 18 -2 12 3 17 20 16 12
-1 22 2 22 7 0 8 -36 8 -49 -1z"/>
		<path d="M235 4260 c3 -5 8 -10 11 -10 2 0 4 5 4 10 0 6 -5 10 -11 10 -5 0 -7
-4 -4 -10z"/>
		<path d="M260 4240 c-12 -7 -10 -9 7 -7 12 0 19 5 17 9 -6 10 -6 10 -24 -2z"/>
		<path d="M231 4213 c7 -12 15 -20 18 -17 3 2 -3 12 -13 22 -17 16 -18 16 -5
-5z"/>
		<path d="M6785 4200 c10 -11 20 -20 23 -20 3 0 -3 9 -13 20 -10 11 -20 20 -23
20 -3 0 3 -9 13 -20z"/>
		<path d="M210 4200 c0 -5 5 -10 11 -10 5 0 7 5 4 10 -3 6 -8 10 -11 10 -2 0
-4 -4 -4 -10z"/>
		<path d="M6725 4180 c-3 -5 -2 -10 4 -10 5 0 13 5 16 10 3 6 2 10 -4 10 -5 0
-13 -4 -16 -10z"/>
		<path d="M6750 4159 c-7 -11 -10 -23 -7 -25 2 -2 9 7 15 21 14 30 7 33 -8 4z"/>
		<path d="M235 4131 c3 -2 -3 -10 -13 -18 -12 -10 -8 -9 16 2 37 18 39 21 12
21 -10 0 -17 -2 -15 -5z"/>
		<path d="M166 4098 c3 -5 10 -6 15 -3 13 9 11 12 -6 12 -8 0 -12 -4 -9 -9z"/>
		<path d="M243 4096 c-9 -11 -9 -15 0 -19 7 -3 14 3 14 14 2 22 2 22 -14 5z"/>
		<path d="M204 4079 c-3 -6 -2 -15 4 -21 6 -6 12 -6 17 3 6 8 4 10 -5 4 -10 -6
-12 -4 -7 8 7 19 2 23 -9 6z"/>
		<path d="M239 4058 c-5 -10 -7 -59 -3 -55 6 6 13 57 8 57 -2 0 -5 -1 -5 -2z"/>
		<path d="M6785 4040 c-3 -5 -2 -10 4 -10 5 0 13 5 16 10 3 6 2 10 -4 10 -5 0
-13 -4 -16 -10z"/>
		<path d="M6755 4020 c3 -5 8 -10 11 -10 2 0 4 5 4 10 0 6 -5 10 -11 10 -5 0
-7 -4 -4 -10z"/>
		<path d="M193 3995 c0 -8 4 -12 9 -9 5 3 6 10 3 15 -9 13 -12 11 -12 -6z"/>
		<path d="M6790 3990 c13 -24 17 -25 17 -5 0 8 -6 16 -14 19 -11 4 -11 1 -3
-14z"/>
		<path d="M6826 3998 c3 -5 10 -6 15 -3 13 9 11 12 -6 12 -8 0 -12 -4 -9 -9z"/>
		<path d="M190 3960 c0 -5 5 -10 11 -10 5 0 7 5 4 10 -3 6 -8 10 -11 10 -2 0
-4 -4 -4 -10z"/>
		<path d="M6790 3900 c0 -5 5 -10 10 -10 6 0 10 5 10 10 0 6 -4 10 -10 10 -5 0
-10 -4 -10 -10z"/>
		<path d="M6776 3877 c3 -10 9 -15 12 -12 3 3 0 11 -7 18 -10 9 -11 8 -5 -6z"/>
		<path d="M195 3850 c3 -5 8 -10 11 -10 2 0 4 5 4 10 0 6 -5 10 -11 10 -5 0 -7
-4 -4 -10z"/>
		<path d="M6797 3853 c-10 -9 -9 -23 1 -23 5 0 9 7 9 15 0 17 -1 18 -10 8z"/>
		<path d="M207 3814 c5 -13 3 -15 -8 -9 -11 6 -12 5 -1 -6 18 -20 15 -33 -5
-18 -16 13 -17 12 -5 -3 8 -9 10 -23 6 -30 -5 -10 -4 -10 6 -1 16 14 23 70 10
78 -6 4 -7 -1 -3 -11z"/>
		<path d="M6794 3764 c-19 -28 -8 -50 16 -33 13 9 12 10 -2 5 -24 -7 -23 9 2
34 11 11 16 20 10 20 -5 0 -17 -11 -26 -26z"/>
		<path d="M6839 3753 c-13 -16 -12 -17 4 -4 16 13 21 21 13 21 -2 0 -10 -8 -17
-17z"/>
		<path d="M126 3742 c-3 -5 1 -9 9 -9 8 0 12 4 9 9 -3 4 -7 8 -9 8 -2 0 -6 -4
-9 -8z"/>
		<path d="M159 3708 c-5 -18 -6 -38 -1 -34 7 8 12 36 6 36 -2 0 -4 -1 -5 -2z"/>
		<path d="M6795 3690 c3 -5 8 -10 11 -10 2 0 4 5 4 10 0 6 -5 10 -11 10 -5 0
-7 -4 -4 -10z"/>
		<path d="M6855 3689 c-4 -6 -5 -12 -2 -15 2 -3 7 2 10 11 7 17 1 20 -8 4z"/>
		<path d="M175 3670 c-3 -6 1 -7 9 -4 18 7 21 14 7 14 -6 0 -13 -4 -16 -10z"/>
		<path d="M170 3640 c0 -5 5 -10 11 -10 5 0 7 5 4 10 -3 6 -8 10 -11 10 -2 0
-4 -4 -4 -10z"/>
		<path d="M6800 3646 c0 -2 7 -7 16 -10 8 -3 12 -2 9 4 -6 10 -25 14 -25 6z"/>
		<path d="M190 3620 c-9 -6 -10 -10 -3 -10 6 0 15 5 18 10 8 12 4 12 -15 0z"/>
		<path d="M6802 3610 c15 -24 25 -26 25 -5 0 8 -4 12 -9 9 -4 -3 -8 0 -8 5 0 6
-5 11 -10 11 -6 0 -5 -8 2 -20z"/>
		<path d="M160 3580 c-12 -7 -10 -9 7 -7 12 0 19 5 17 9 -6 10 -6 10 -24 -2z"/>
		<path d="M6795 3570 c-3 -6 1 -7 9 -4 18 7 21 14 7 14 -6 0 -13 -4 -16 -10z"/>
		<path d="M113 3555 c0 -8 4 -12 9 -9 5 3 6 10 3 15 -9 13 -12 11 -12 -6z"/>
		<path d="M196 3554 c-8 -20 -8 -24 2 -24 4 0 8 9 9 20 2 24 -3 26 -11 4z"/>
		<path d="M158 3553 c7 -3 16 -2 19 1 4 3 -2 6 -13 5 -11 0 -14 -3 -6 -6z"/>
		<path d="M6794 3525 c3 -23 12 -26 13 -5 1 11 -2 20 -7 20 -4 0 -7 -7 -6 -15z"/>
		<path d="M157 3508 c9 -10 17 -18 17 -18 1 0 2 8 2 18 0 10 -8 18 -18 18 -16
0 -16 -2 -1 -18z"/>
		<path d="M6835 3521 c-3 -5 -2 -12 3 -15 5 -3 9 1 9 9 0 17 -3 19 -12 6z"/>
		<path d="M190 3510 c0 -5 5 -10 11 -10 5 0 7 5 4 10 -3 6 -8 10 -11 10 -2 0
-4 -4 -4 -10z"/>
		<path d="M192 3480 c3 -8 2 -22 -2 -30 -5 -9 -3 -26 5 -40 12 -22 12 -20 10
24 -2 26 -6 50 -10 54 -4 4 -5 0 -3 -8z"/>
		<path d="M6830 3471 c0 -7 -5 -9 -12 -5 -7 5 -8 3 -3 -5 5 -9 10 -10 18 -2 6
6 8 14 4 18 -4 3 -7 1 -7 -6z"/>
		<path d="M6795 3440 c3 -5 8 -10 11 -10 2 0 4 5 4 10 0 6 -5 10 -11 10 -5 0
-7 -4 -4 -10z"/>
		<path d="M6860 3446 c0 -2 8 -10 18 -17 15 -13 16 -12 3 4 -13 16 -21 21 -21
13z"/>
		<path d="M136 3422 c-3 -5 1 -9 9 -9 8 0 12 4 9 9 -3 4 -7 8 -9 8 -2 0 -6 -4
-9 -8z"/>
		<path d="M6815 3420 c-4 -6 -11 -7 -17 -4 -7 4 -8 2 -4 -5 6 -9 11 -9 22 0 14
11 19 2 15 -24 -1 -5 3 -6 9 -2 7 4 7 12 0 26 -12 22 -16 23 -25 9z"/>
		<path d="M157 3392 c-15 -17 -15 -18 3 -19 11 -1 22 2 25 8 4 5 -2 6 -12 2
-16 -6 -16 -5 -4 10 18 23 8 22 -12 -1z"/>
		<path d="M6797 3383 c-4 -3 -2 -12 4 -20 7 -8 8 -13 1 -13 -5 0 -9 -11 -8 -24
0 -13 5 -22 9 -19 5 3 6 11 3 18 -3 8 1 19 9 25 10 8 16 7 24 -7 6 -10 11 -13
11 -7 0 13 -20 32 -35 33 -5 1 -9 6 -7 11 2 12 -2 13 -11 3z"/>
		<path d="M180 3360 c-8 -5 -10 -10 -5 -10 6 0 17 5 25 10 8 5 11 10 5 10 -5 0
-17 -5 -25 -10z"/>
		<path d="M135 3340 c-3 -5 -1 -10 4 -10 6 0 11 5 11 10 0 6 -2 10 -4 10 -3 0
-8 -4 -11 -10z"/>
		<path d="M6830 3299 c0 -5 5 -7 10 -4 6 3 10 8 10 11 0 2 -4 4 -10 4 -5 0 -10
-5 -10 -11z"/>
		<path d="M184 3275 c-18 -15 -18 -15 0 -8 15 5 17 3 11 -8 -5 -8 -4 -11 0 -6
8 7 17 37 11 37 -1 0 -11 -7 -22 -15z"/>
		<path d="M173 3235 c0 -7 6 -11 14 -8 7 3 13 6 13 8 0 2 -6 5 -13 8 -8 3 -14
-1 -14 -8z"/>
		<path d="M125 3220 c-3 -6 1 -7 9 -4 18 7 21 14 7 14 -6 0 -13 -4 -16 -10z"/>
		<path d="M6794 3216 c-10 -8 -17 -16 -14 -19 3 -2 14 4 24 14 23 22 18 25 -10
5z"/>
		<path d="M6833 3215 c0 -8 4 -12 9 -9 5 3 6 10 3 15 -9 13 -12 11 -12 -6z"/>
		<path d="M186 3178 c3 -4 11 -5 19 -1 21 7 19 12 -4 10 -11 0 -18 -5 -15 -9z"/>
		<path d="M6788 3173 c7 -3 16 -2 19 1 4 3 -2 6 -13 5 -11 0 -14 -3 -6 -6z"/>
		<path d="M201 3114 c0 -11 3 -14 6 -6 3 7 2 16 -1 19 -3 4 -6 -2 -5 -13z"/>
		<path d="M6815 3090 c-3 -5 -12 -7 -20 -3 -10 3 -15 -1 -15 -12 0 -10 -4 -13
-12 -9 -9 5 -9 2 1 -9 14 -18 22 -22 20 -9 -3 19 2 33 10 28 5 -3 14 1 21 9 7
8 10 15 7 15 -3 0 -8 -4 -12 -10z"/>
		<path d="M215 3060 c-3 -5 -2 -10 4 -10 5 0 13 5 16 10 3 6 2 10 -4 10 -5 0
-13 -4 -16 -10z"/>
		<path d="M6813 3005 c0 -8 4 -12 9 -9 5 3 6 10 3 15 -9 13 -12 11 -12 -6z"/>
		<path d="M6760 2999 c0 -5 5 -7 10 -4 6 3 10 8 10 11 0 2 -4 4 -10 4 -5 0 -10
-5 -10 -11z"/>
		<path d="M215 2981 c-3 -6 3 -14 13 -20 14 -7 19 -6 19 4 0 7 -7 11 -15 7 -10
-3 -13 -1 -8 6 4 7 5 12 2 12 -3 0 -7 -4 -11 -9z"/>
		<path d="M6775 2979 c-4 -6 -4 -13 -1 -16 3 -4 6 -1 6 7 0 10 4 10 18 -1 15
-13 16 -12 3 4 -16 20 -18 20 -26 6z"/>
		<path d="M193 2946 c0 -15 22 -15 34 0 4 5 4 6 -1 2 -5 -4 -14 -3 -21 2 -8 7
-12 5 -12 -4z"/>
		<path d="M237 2933 c-11 -11 -8 -20 7 -20 8 0 12 6 9 14 -6 15 -7 15 -16 6z"/>
		<path d="M6787 2919 c7 -7 15 -10 18 -7 3 3 -2 9 -12 12 -14 6 -15 5 -6 -5z"/>
		<path d="M210 2900 c0 -5 5 -10 11 -10 5 0 7 5 4 10 -3 6 -8 10 -11 10 -2 0
-4 -4 -4 -10z"/>
		<path d="M6748 2903 c6 -2 18 -2 25 0 6 3 1 5 -13 5 -14 0 -19 -2 -12 -5z"/>
		<path d="M6746 2879 c3 -5 9 -7 14 -4 4 3 11 0 13 -5 3 -6 4 -5 3 1 -1 7 -10
13 -19 15 -9 1 -15 -2 -11 -7z"/>
		<path d="M6796 2878 c3 -5 10 -6 15 -3 13 9 11 12 -6 12 -8 0 -12 -4 -9 -9z"/>
		<path d="M230 2860 c0 -5 7 -7 15 -4 8 4 15 8 15 10 0 2 -7 4 -15 4 -8 0 -15
-4 -15 -10z"/>
		<path d="M250 2816 c0 -2 7 -7 16 -10 8 -3 12 -2 9 4 -6 10 -25 14 -25 6z"/>
		<path d="M261 2778 c7 -16 16 -28 21 -28 13 0 10 9 -13 33 l-21 22 13 -27z"/>
		<path d="M6773 2749 c-2 -23 3 -25 10 -4 4 8 3 16 -1 19 -4 3 -9 -4 -9 -15z"/>
		<path d="M242 2738 c-15 -15 -16 -28 -2 -28 6 0 9 6 8 13 -2 6 3 11 10 9 8 -1
11 2 7 8 -8 13 -8 13 -23 -2z"/>
		<path d="M6734 2735 c-3 -8 -4 -20 -2 -27 3 -7 7 -1 10 15 6 29 1 36 -8 12z"/>
		<path d="M283 2714 c0 -17 2 -22 7 -13 5 6 6 18 3 26 -8 19 -10 16 -10 -13z"/>
		<path d="M6710 2701 c0 -6 4 -13 10 -16 6 -3 7 1 4 9 -7 18 -14 21 -14 7z"/>
		<path d="M256 2682 c-3 -5 1 -9 9 -9 8 0 12 4 9 9 -3 4 -7 8 -9 8 -2 0 -6 -4
-9 -8z"/>
		<path d="M6694 2682 c4 -7 2 -21 -5 -30 -12 -15 -11 -15 6 0 16 15 17 20 6 30
-11 11 -13 10 -7 0z"/>
		<path d="M290 2666 c0 -2 7 -9 15 -16 13 -11 14 -10 9 4 -5 14 -24 23 -24 12z"/>
		<path d="M6747 2659 c7 -7 15 -10 18 -7 3 3 -2 9 -12 12 -14 6 -15 5 -6 -5z"/>
		<path d="M229 2643 c-13 -16 -12 -17 4 -4 9 7 17 15 17 17 0 8 -8 3 -21 -13z"/>
		<path d="M276 2647 c3 -10 9 -15 12 -12 3 3 0 11 -7 18 -10 9 -11 8 -5 -6z"/>
		<path d="M6710 2642 c0 -5 7 -9 15 -9 8 0 12 4 9 9 -3 4 -9 8 -15 8 -5 0 -9
-4 -9 -8z"/>
		<path d="M255 2620 c3 -5 8 -10 11 -10 2 0 4 5 4 10 0 6 -5 10 -11 10 -5 0 -7
-4 -4 -10z"/>
		<path d="M6695 2621 c6 -11 4 -13 -8 -8 -11 4 -14 2 -11 -8 9 -22 31 -25 29
-4 -1 10 -5 22 -10 26 -4 5 -4 2 0 -6z"/>
		<path d="M250 2579 c0 -5 5 -7 10 -4 6 3 10 8 10 11 0 2 -4 4 -10 4 -5 0 -10
-5 -10 -11z"/>
		<path d="M290 2561 c0 -6 4 -13 10 -16 6 -3 7 1 4 9 -7 18 -14 21 -14 7z"/>
		<path d="M6677 2513 c-10 -9 -9 -23 1 -23 5 0 9 7 9 15 0 17 -1 18 -10 8z"/>
		<path d="M312 2500 c2 -9 -3 -14 -12 -12 -8 2 -12 0 -7 -4 14 -14 47 -11 59 5
10 13 10 14 -2 4 -11 -10 -16 -9 -27 5 -10 13 -13 14 -11 2z"/>
		<path d="M6635 2480 c-3 -6 1 -7 9 -4 18 7 21 14 7 14 -6 0 -13 -4 -16 -10z"/>
		<path d="M357 2473 c-7 -13 -1 -58 7 -53 5 3 14 -8 21 -25 7 -16 14 -25 14
-20 1 6 -8 27 -19 48 -11 21 -18 42 -15 47 4 6 4 10 1 10 -3 0 -7 -3 -9 -7z"/>
		<path d="M6675 2470 c-4 -6 -11 -7 -17 -4 -7 4 -8 2 -4 -5 6 -9 11 -9 22 0 14
11 18 19 10 19 -3 0 -8 -5 -11 -10z"/>
		<path d="M6675 2441 c-3 -5 -2 -12 3 -15 5 -3 9 1 9 9 0 17 -3 19 -12 6z"/>
		<path d="M6620 2420 c0 -6 7 -10 15 -10 8 0 15 2 15 4 0 2 -7 6 -15 10 -8 3
-15 1 -15 -4z"/>
		<path d="M6661 2356 c-9 -11 -9 -16 1 -22 7 -4 10 -4 6 1 -4 4 -3 14 3 22 6 7
9 13 6 13 -2 0 -10 -6 -16 -14z"/>
		<path d="M385 2349 c-4 -6 -5 -12 -2 -15 2 -3 7 2 10 11 7 17 1 20 -8 4z"/>
		<path d="M355 2340 c-3 -5 -1 -10 4 -10 6 0 11 5 11 10 0 6 -2 10 -4 10 -3 0
-8 -4 -11 -10z"/>
		<path d="M6610 2331 c-8 -6 -18 -7 -24 -4 -5 3 -6 1 -2 -5 5 -9 13 -9 27 -2
10 6 19 13 19 15 0 7 -3 6 -20 -4z"/>
		<path d="M423 2290 c6 -16 15 -30 19 -30 5 0 2 14 -7 30 -9 17 -17 30 -19 30
-3 0 1 -13 7 -30z"/>
		<path d="M6575 2290 c6 -30 16 -40 12 -12 -2 12 -6 24 -10 28 -3 4 -4 -4 -2
-16z"/>
		<path d="M380 2296 c0 -2 7 -6 15 -10 8 -3 15 -1 15 4 0 6 -7 10 -15 10 -8 0
-15 -2 -15 -4z"/>
		<path d="M390 2266 c0 -2 7 -7 16 -10 8 -3 12 -2 9 4 -6 10 -25 14 -25 6z"/>
		<path d="M421 2240 c-9 -5 -4 -7 13 -7 29 0 32 2 13 10 -8 3 -20 2 -26 -3z"/>
		<path d="M6576 2242 c-2 -4 -1 -14 4 -22 7 -11 9 -9 7 8 -1 24 -3 26 -11 14z"/>
		<path d="M6610 2240 c0 -5 5 -10 11 -10 5 0 7 5 4 10 -3 6 -8 10 -11 10 -2 0
-4 -4 -4 -10z"/>
		<path d="M6557 2175 c-8 -8 -18 -11 -22 -7 -5 4 -5 1 -1 -6 6 -11 12 -10 27 4
10 9 19 19 19 21 0 7 -9 2 -23 -12z"/>
		<path d="M419 2178 c-5 -18 -6 -38 -1 -34 7 8 12 36 6 36 -2 0 -4 -1 -5 -2z"/>
		<path d="M470 2150 c0 -6 7 -10 15 -10 8 0 15 2 15 4 0 2 -7 6 -15 10 -8 3
-15 1 -15 -4z"/>
		<path d="M6566 2138 c3 -5 10 -6 15 -3 13 9 11 12 -6 12 -8 0 -12 -4 -9 -9z"/>
		<path d="M6535 2120 c-3 -5 -1 -10 4 -10 6 0 11 5 11 10 0 6 -2 10 -4 10 -3 0
-8 -4 -11 -10z"/>
		<path d="M6508 2083 c7 -3 16 -2 19 1 4 3 -2 6 -13 5 -11 0 -14 -3 -6 -6z"/>
		<path d="M6476 2067 c3 -10 9 -15 12 -12 3 3 0 11 -7 18 -10 9 -11 8 -5 -6z"/>
		<path d="M490 2038 c0 -6 3 -8 6 -5 4 3 16 2 28 -4 20 -10 20 -10 2 5 -24 19
-36 20 -36 4z"/>
		<path d="M6500 2046 c0 -2 7 -7 16 -10 8 -3 12 -2 9 4 -6 10 -25 14 -25 6z"/>
		<path d="M495 2011 c-3 -5 -2 -12 3 -15 5 -3 9 1 9 9 0 17 -3 19 -12 6z"/>
		<path d="M533 1965 c0 -7 7 -11 15 -7 11 4 13 1 7 -8 -5 -9 -4 -11 3 -6 16 10
15 14 -6 25 -14 7 -19 6 -19 -4z"/>
		<path d="M6440 1940 c-12 -7 -12 -11 -2 -20 6 -5 10 -7 7 -4 -3 4 0 13 6 21
13 15 10 16 -11 3z"/>
		<path d="M573 1923 c0 -9 4 -10 14 -2 7 6 13 12 13 14 0 1 -6 2 -13 2 -8 0
-14 -6 -14 -14z"/>
		<path d="M6394 1915 c1 -8 6 -18 11 -22 4 -5 5 -2 0 6 -6 11 -4 13 8 8 23 -9
21 0 -2 13 -15 7 -19 7 -17 -5z"/>
		<path d="M594 1908 c-4 -6 -3 -8 3 -5 14 9 24 -18 16 -40 -4 -10 -2 -14 5 -9
6 3 15 -2 21 -11 18 -31 12 -9 -9 35 -22 45 -25 48 -36 30z"/>
		<path d="M573 1886 c0 -7 6 -13 14 -13 7 0 13 4 13 8 0 4 -6 9 -13 12 -8 3
-14 0 -14 -7z"/>
		<path d="M6380 1882 c0 -7 5 -12 11 -12 5 0 8 -4 5 -9 -7 -11 21 -9 29 2 3 4
2 5 -2 2 -3 -3 -15 2 -25 12 -11 9 -18 11 -18 5z"/>
		<path d="M6366 1857 c3 -10 9 -15 12 -12 3 3 0 11 -7 18 -10 9 -11 8 -5 -6z"/>
		<path d="M650 1809 c0 -5 -4 -7 -10 -4 -5 3 -10 2 -10 -3 0 -5 12 -9 28 -9 15
0 21 2 14 4 -6 3 -10 9 -6 14 3 5 0 9 -5 9 -6 0 -11 -5 -11 -11z"/>
		<path d="M694 1738 c-4 -7 -3 -8 4 -4 8 4 12 0 12 -11 1 -18 22 -53 32 -53 3
0 -3 18 -14 40 -22 44 -24 45 -34 28z"/>
		<path d="M6297 1719 c4 -13 8 -18 11 -10 2 7 -1 18 -6 23 -8 8 -9 4 -5 -13z"/>
		<path d="M6252 1678 c2 -6 10 -13 16 -14 7 -1 8 0 2 3 -5 2 -8 9 -4 14 3 5 0
9 -6 9 -7 0 -10 -5 -8 -12z"/>
		<path d="M6289 1677 c6 -8 7 -18 3 -22 -4 -5 -2 -5 5 -1 14 8 6 36 -9 36 -7 0
-6 -5 1 -13z"/>
		<path d="M6240 1649 c0 -5 -4 -8 -9 -5 -5 3 -12 -1 -15 -9 -4 -13 -2 -14 14
-5 18 10 28 30 15 30 -3 0 -5 -5 -5 -11z"/>
		<path d="M715 1640 c3 -5 8 -10 11 -10 2 0 4 5 4 10 0 6 -5 10 -11 10 -5 0 -7
-4 -4 -10z"/>
		<path d="M6296 1618 c3 -5 10 -6 15 -3 13 9 11 12 -6 12 -8 0 -12 -4 -9 -9z"/>
		<path d="M756 1605 c4 -8 8 -15 10 -15 2 0 4 7 4 15 0 8 -4 15 -10 15 -5 0 -7
-7 -4 -15z"/>
		<path d="M6193 1597 c-3 -5 -2 -11 1 -14 3 -4 6 -1 6 6 0 7 3 10 8 8 4 -3 16
-1 27 4 17 6 15 7 -8 6 -16 -1 -31 -5 -34 -10z"/>
		<path d="M776 1582 c-2 -4 -1 -14 4 -22 7 -11 9 -9 7 8 -1 24 -3 26 -11 14z"/>
		<path d="M6225 1580 c-3 -6 1 -7 9 -4 18 7 21 14 7 14 -6 0 -13 -4 -16 -10z"/>
		<path d="M800 1566 c0 -8 4 -17 9 -20 5 -4 7 3 4 14 -6 23 -13 26 -13 6z"/>
		<path d="M830 1550 c0 -5 5 -10 11 -10 5 0 7 5 4 10 -3 6 -8 10 -11 10 -2 0
-4 -4 -4 -10z"/>
		<path d="M6166 1545 c4 -8 11 -15 16 -15 6 0 5 6 -2 15 -7 8 -14 15 -16 15 -2
0 -1 -7 2 -15z"/>
		<path d="M807 1523 c-3 -5 9 -9 26 -10 26 -1 28 0 12 7 -26 11 -33 12 -38 3z"/>
		<path d="M6109 1492 c-13 -16 -13 -16 5 -2 18 14 19 13 14 -2 -4 -9 -1 -19 6
-21 10 -4 12 1 9 14 -8 28 -19 31 -34 11z"/>
		<path d="M815 1491 c-3 -5 -2 -12 3 -15 5 -3 9 1 9 9 0 17 -3 19 -12 6z"/>
		<path d="M861 1484 c0 -11 3 -14 6 -6 3 7 2 16 -1 19 -3 4 -6 -2 -5 -13z"/>
		<path d="M884 1473 c4 -6 3 -13 -1 -16 -5 -2 -2 -2 6 0 8 2 11 -2 7 -12 -3 -9
-2 -14 3 -11 5 3 11 -1 15 -9 3 -8 10 -15 16 -15 8 0 8 4 0 13 -5 6 -19 23
-31 37 -11 14 -18 20 -15 13z"/>
		<path d="M835 1461 c-3 -5 -2 -12 3 -15 5 -3 9 1 9 9 0 17 -3 19 -12 6z"/>
		<path d="M6061 1429 c-41 -48 -32 -52 11 -5 30 33 32 34 57 19 l26 -15 -25 21
c-14 11 -27 20 -30 20 -3 0 -20 -18 -39 -40z"/>
		<path d="M855 1420 c3 -5 8 -10 11 -10 2 0 4 5 4 10 0 6 -5 10 -11 10 -5 0 -7
-4 -4 -10z"/>
		<path d="M6095 1420 c-4 -6 -1 -9 7 -8 7 2 12 -3 10 -10 -1 -8 2 -11 8 -7 8 5
7 11 -1 21 -14 17 -16 17 -24 4z"/>
		<path d="M886 1402 c-2 -4 4 -8 14 -8 10 0 16 4 14 8 -3 4 -9 8 -14 8 -5 0
-11 -4 -14 -8z"/>
		<path d="M940 1400 c-12 -7 -10 -9 7 -7 12 0 19 5 17 9 -6 10 -6 10 -24 -2z"/>
		<path d="M6073 1403 c4 -3 -1 -12 -11 -20 -15 -13 -15 -13 6 -3 19 9 23 30 5
30 -4 0 -3 -3 0 -7z"/>
		<path d="M6059 1353 c-13 -17 -13 -17 6 -3 11 8 22 16 24 17 2 2 0 3 -6 3 -6
0 -17 -8 -24 -17z"/>
		<path d="M873 1315 c0 -8 4 -12 9 -9 5 3 6 10 3 15 -9 13 -12 11 -12 -6z"/>
		<path d="M6008 1323 c6 -2 9 -10 6 -15 -4 -7 -2 -8 5 -4 13 9 5 26 -12 25 -9
0 -8 -2 1 -6z"/>
		<path d="M6046 1322 c-3 -5 1 -9 9 -9 8 0 12 4 9 9 -3 4 -7 8 -9 8 -2 0 -6 -4
-9 -8z"/>
		<path d="M5934 1274 c-18 -15 -18 -15 1 -5 12 6 26 6 37 0 10 -5 18 -7 18 -5
0 3 -8 10 -19 15 -13 8 -23 6 -37 -5z"/>
		<path d="M5996 1278 c3 -5 10 -6 15 -3 13 9 11 12 -6 12 -8 0 -12 -4 -9 -9z"/>
		<path d="M1058 1273 c6 -2 9 -10 6 -15 -4 -7 -2 -8 5 -4 13 9 5 26 -12 25 -9
0 -8 -2 1 -6z"/>
		<path d="M1035 1250 c-4 -6 -10 -8 -14 -6 -4 3 -8 -1 -8 -9 0 -13 4 -12 19 2
18 16 22 23 14 23 -3 0 -8 -5 -11 -10z"/>
		<path d="M5951 1253 c-1 -17 16 -25 25 -12 4 7 3 9 -4 5 -5 -3 -13 0 -15 6 -4
9 -6 10 -6 1z"/>
		<path d="M1075 1240 c-3 -5 -2 -10 4 -10 5 0 13 5 16 10 3 6 2 10 -4 10 -5 0
-13 -4 -16 -10z"/>
		<path d="M5930 1241 c0 -6 4 -13 10 -16 6 -3 7 1 4 9 -7 18 -14 21 -14 7z"/>
		<path d="M1090 1211 c0 -6 4 -13 10 -16 6 -3 7 1 4 9 -7 18 -14 21 -14 7z"/>
		<path d="M5900 1200 c-8 -5 -10 -10 -5 -10 6 0 17 5 25 10 8 5 11 10 5 10 -5
0 -17 -5 -25 -10z"/>
		<path d="M1070 1196 c0 -2 8 -10 18 -17 15 -13 16 -12 3 4 -13 16 -21 21 -21
13z"/>
		<path d="M5870 1170 c-9 -6 -10 -10 -3 -10 6 0 15 5 18 10 8 12 4 12 -15 0z"/>
		<path d="M1166 1155 c4 -8 10 -15 14 -15 5 0 16 -7 24 -16 9 -8 16 -11 16 -7
0 5 -13 19 -30 31 -20 15 -28 18 -24 7z"/>
		<path d="M1120 1156 c0 -2 7 -7 16 -10 8 -3 12 -2 9 4 -6 10 -25 14 -25 6z"/>
		<path d="M5895 1151 c-3 -5 -2 -12 3 -15 5 -3 9 1 9 9 0 17 -3 19 -12 6z"/>
		<path d="M1094 1138 c-4 -7 -4 -10 1 -6 4 4 15 2 24 -5 14 -11 14 -10 2 6 -16
20 -18 21 -27 5z"/>
		<path d="M1155 1120 c3 -5 8 -10 11 -10 2 0 4 5 4 10 0 6 -5 10 -11 10 -5 0
-7 -4 -4 -10z"/>
		<path d="M1187 1107 c-3 -8 3 -14 16 -15 12 0 17 2 12 6 -6 4 -13 11 -16 15
-4 4 -9 2 -12 -6z"/>
		<path d="M1220 1080 c-8 -5 -10 -10 -5 -10 6 0 17 5 25 10 8 5 11 10 5 10 -5
0 -17 -5 -25 -10z"/>
		<path d="M5770 1080 c0 -5 5 -10 10 -10 6 0 10 5 10 10 0 6 -4 10 -10 10 -5 0
-10 -4 -10 -10z"/>
		<path d="M1247 1068 c-12 -10 -14 -17 -6 -28 9 -13 10 -13 6 0 -2 8 3 20 12
27 9 7 13 13 10 13 -3 0 -13 -6 -22 -12z"/>
		<path d="M5716 1061 c-15 -17 -15 -19 1 -32 16 -13 17 -12 5 3 -11 14 -10 19
10 32 12 9 18 16 12 16 -6 0 -18 -8 -28 -19z"/>
		<path d="M5810 1060 c0 -5 5 -10 11 -10 5 0 7 5 4 10 -3 6 -8 10 -11 10 -2 0
-4 -4 -4 -10z"/>
		<path d="M5750 1051 c0 -7 -5 -9 -12 -5 -7 5 -8 3 -3 -5 5 -9 10 -10 18 -2 6
6 8 14 4 18 -4 3 -7 1 -7 -6z"/>
		<path d="M1277 1033 c-11 -11 -8 -20 7 -20 8 0 12 6 9 14 -6 15 -7 15 -16 6z"/>
		<path d="M5755 1020 c-3 -5 -1 -10 4 -10 6 0 11 5 11 10 0 6 -2 10 -4 10 -3 0
-8 -4 -11 -10z"/>
		<path d="M1308 983 c6 -2 9 -10 6 -15 -4 -7 -2 -8 5 -4 13 9 5 26 -12 25 -9 0
-8 -2 1 -6z"/>
		<path d="M1355 979 c-4 -6 -5 -12 -2 -15 2 -3 7 2 10 11 7 17 1 20 -8 4z"/>
		<path d="M1360 946 c0 -2 7 -7 16 -10 8 -3 12 -2 9 4 -6 10 -25 14 -25 6z"/>
		<path d="M5567 934 c-15 -8 -25 -19 -22 -23 7 -12 -22 -34 -34 -26 -7 3 -8 0
-5 -9 5 -13 10 -12 34 7 17 14 23 25 16 29 -6 4 -8 8 -4 8 3 0 14 3 22 6 13 5
15 2 10 -12 -4 -11 -5 -17 -3 -14 37 41 30 57 -14 34z"/>
		<path d="M1398 912 c-3 -11 0 -19 7 -19 8 0 11 7 7 15 -4 11 -1 13 8 7 9 -5
11 -4 6 3 -11 17 -23 15 -28 -6z"/>
		<path d="M5619 913 c-13 -16 -12 -17 4 -4 9 7 17 15 17 17 0 8 -8 3 -21 -13z"/>
		<path d="M1430 896 c0 -3 9 -10 20 -16 11 -6 20 -8 20 -6 0 3 -9 10 -20 16
-11 6 -20 8 -20 6z"/>
		<path d="M5565 880 c3 -5 8 -10 11 -10 2 0 4 5 4 10 0 6 -5 10 -11 10 -5 0 -7
-4 -4 -10z"/>
		<path d="M1515 850 c-3 -5 -1 -10 4 -10 6 0 11 5 11 10 0 6 -2 10 -4 10 -3 0
-8 -4 -11 -10z"/>
		<path d="M1534 827 c-4 -7 -4 -9 1 -5 4 4 14 3 22 -3 8 -7 13 -8 13 -1 0 15
-28 23 -36 9z"/>
		<path d="M1455 820 c-3 -5 -1 -10 4 -10 6 0 11 5 11 10 0 6 -2 10 -4 10 -3 0
-8 -4 -11 -10z"/>
		<path d="M5475 821 c-3 -5 0 -13 6 -17 7 -4 9 -3 5 4 -3 5 0 13 6 15 9 4 10 6
1 6 -6 1 -14 -3 -18 -8z"/>
		<path d="M5418 813 c6 -2 10 -9 7 -14 -4 -5 1 -6 10 -2 13 5 14 7 3 14 -7 5
-17 8 -23 8 -5 0 -4 -3 3 -6z"/>
		<path d="M5390 780 c0 -5 5 -10 10 -10 6 0 10 5 10 10 0 6 -4 10 -10 10 -5 0
-10 -4 -10 -10z"/>
		<path d="M5450 779 c0 -5 5 -7 10 -4 6 3 10 8 10 11 0 2 -4 4 -10 4 -5 0 -10
-5 -10 -11z"/>
		<path d="M1610 771 c0 -10 19 -25 25 -20 1 2 -3 10 -11 17 -8 7 -14 8 -14 3z"/>
		<path d="M5343 765 c-3 -9 -3 -19 1 -22 3 -4 6 1 6 10 0 10 5 17 11 17 5 0 7
-5 3 -12 -4 -7 -3 -8 5 -4 12 8 6 26 -10 26 -5 0 -12 -7 -16 -15z"/>
		<path d="M1570 755 c5 -7 6 -16 2 -21 -4 -5 -3 -5 2 -1 15 12 15 34 0 34 -9 0
-11 -4 -4 -12z"/>
		<path d="M1653 756 c0 -7 5 -13 11 -13 6 0 20 -4 31 -8 24 -10 19 -5 -16 17
-19 12 -26 13 -26 4z"/>
		<path d="M5382 724 c10 -10 20 -16 22 -13 3 3 -5 11 -17 18 -21 13 -21 12 -5
-5z"/>
		<path d="M1650 718 c0 -6 3 -8 7 -5 3 4 15 0 25 -10 22 -20 24 -11 2 11 -18
19 -34 21 -34 4z"/>
		<path d="M5340 726 c0 -2 8 -10 18 -17 15 -13 16 -12 3 4 -13 16 -21 21 -21
13z"/>
		<path d="M5319 708 c-5 -18 -6 -38 -1 -34 7 8 12 36 6 36 -2 0 -4 -1 -5 -2z"/>
		<path d="M5267 687 c-3 -8 0 -14 7 -14 7 0 13 6 13 14 0 7 -4 13 -8 13 -4 0
-9 -6 -12 -13z"/>
		<path d="M1825 639 c-4 -6 -5 -12 -2 -15 2 -3 7 2 10 11 7 17 1 20 -8 4z"/>
		<path d="M5293 635 c0 -8 4 -12 9 -9 5 3 6 10 3 15 -9 13 -12 11 -12 -6z"/>
		<path d="M1837 615 c-4 -8 -3 -16 1 -19 4 -3 9 4 9 15 2 23 -3 25 -10 4z"/>
		<path d="M1893 605 c0 -8 5 -11 10 -8 6 4 8 0 4 -10 -4 -11 -2 -14 9 -10 13 5
13 8 -2 24 -21 23 -21 23 -21 4z"/>
		<path d="M1810 579 c0 -5 5 -7 10 -4 6 3 10 8 10 11 0 2 -4 4 -10 4 -5 0 -10
-5 -10 -11z"/>
		<path d="M1874 576 c1 -8 5 -18 8 -22 4 -3 5 1 4 10 -1 8 -5 18 -8 22 -4 3 -5
-1 -4 -10z"/>
		<path d="M1950 580 c0 -5 5 -10 11 -10 5 0 7 5 4 10 -3 6 -8 10 -11 10 -2 0
-4 -4 -4 -10z"/>
		<path d="M1920 560 c-9 -6 -10 -10 -3 -10 6 0 15 5 18 10 8 12 4 12 -15 0z"/>
		<path d="M1980 559 c0 -5 5 -7 10 -4 6 3 10 8 10 11 0 2 -4 4 -10 4 -5 0 -10
-5 -10 -11z"/>
		<path d="M5095 560 c3 -5 8 -10 11 -10 2 0 4 5 4 10 0 6 -5 10 -11 10 -5 0 -7
-4 -4 -10z"/>
		<path d="M1960 551 c0 -6 4 -13 10 -16 6 -3 7 1 4 9 -7 18 -14 21 -14 7z"/>
		<path d="M4977 553 c-4 -3 -7 -11 -7 -17 0 -6 5 -5 12 2 6 6 9 14 7 17 -3 3
-9 2 -12 -2z"/>
		<path d="M2025 540 c-4 -6 -3 -10 2 -9 22 4 24 -3 7 -22 -19 -22 -19 -22 4 -8
26 16 27 22 8 38 -10 8 -16 9 -21 1z"/>
		<path d="M5015 539 c-4 -6 -5 -12 -2 -15 2 -3 7 2 10 11 7 17 1 20 -8 4z"/>
		<path d="M1994 525 c3 -23 12 -26 13 -5 1 11 -2 20 -7 20 -4 0 -7 -7 -6 -15z"/>
		<path d="M2090 511 c0 -5 5 -13 10 -16 6 -3 10 -2 10 4 0 5 -4 13 -10 16 -5 3
-10 2 -10 -4z"/>
		<path d="M4950 511 c0 -6 4 -12 8 -15 5 -3 9 1 9 9 0 8 -4 15 -9 15 -4 0 -8
-4 -8 -9z"/>
		<path d="M2070 501 c0 -6 4 -13 10 -16 6 -3 7 1 4 9 -7 18 -14 21 -14 7z"/>
		<path d="M4915 500 c3 -6 1 -10 -4 -10 -6 0 -11 -4 -11 -8 0 -5 7 -9 15 -9 8
0 12 4 9 8 -2 4 1 9 8 11 7 3 5 7 -6 11 -10 4 -15 3 -11 -3z"/>
		<path d="M4842 491 c-11 -7 -11 -9 1 -14 16 -6 27 0 27 15 0 10 -11 10 -28 -1z"/>
		<path d="M2177 474 c-4 -4 -7 -12 -7 -17 0 -6 3 -7 7 -4 3 4 17 0 30 -8 23
-15 23 -15 11 4 -6 11 -15 18 -19 15 -4 -2 -9 1 -11 7 -2 5 -7 7 -11 3z"/>
		<path d="M4810 476 c0 -3 9 -10 20 -16 11 -6 20 -8 20 -6 0 3 -9 10 -20 16
-11 6 -20 8 -20 6z"/>
		<path d="M4786 455 c7 -18 32 -27 40 -13 4 7 3 8 -4 4 -7 -4 -12 -3 -12 2 0 6
-7 12 -14 15 -10 4 -13 1 -10 -8z"/>
		<path d="M2245 432 c-13 -27 -14 -43 -4 -36 5 3 7 9 4 14 -3 5 2 13 11 18 10
6 12 12 6 16 -5 3 -13 -2 -17 -12z"/>
		<path d="M4762 438 c-15 -15 -15 -28 0 -28 6 0 8 3 5 7 -4 3 -2 12 4 20 14 16
7 17 -9 1z"/>
		<path d="M2175 431 c-3 -5 0 -13 6 -17 8 -4 9 -3 5 4 -10 16 6 15 24 0 12 -11
12 -10 1 5 -15 19 -27 22 -36 8z"/>
		<path d="M2294 418 c-4 -7 -3 -8 4 -4 7 4 12 2 12 -3 0 -6 5 -11 10 -11 15 0
12 17 -5 23 -8 4 -17 1 -21 -5z"/>
		<path d="M4697 419 c7 -7 15 -10 18 -7 3 3 -2 9 -12 12 -14 6 -15 5 -6 -5z"/>
		<path d="M2267 407 c-3 -8 1 -14 8 -14 7 0 11 6 8 14 -3 7 -6 13 -8 13 -2 0
-5 -6 -8 -13z"/>
		<path d="M4620 395 c-7 -8 -17 -12 -23 -8 -6 3 -7 1 -3 -5 8 -13 36 -5 36 10
0 5 5 6 10 3 6 -3 10 -1 10 4 0 16 -16 13 -30 -4z"/>
		<path d="M2333 375 c0 -8 4 -12 9 -9 5 3 6 10 3 15 -9 13 -12 11 -12 -6z"/>
		<path d="M4715 370 c10 -11 20 -20 23 -20 3 0 -3 9 -13 20 -10 11 -20 20 -23
20 -3 0 3 -9 13 -20z"/>
		<path d="M2370 373 c0 -1 10 -7 21 -14 13 -6 19 -7 15 -1 -3 6 0 12 6 15 7 2
1 4 -14 3 -16 0 -28 -2 -28 -3z"/>
		<path d="M2425 359 c-3 -4 2 -6 10 -5 21 3 28 13 10 13 -9 0 -18 -4 -20 -8z"/>
		<path d="M2469 353 c-13 -16 -12 -17 4 -4 16 13 21 21 13 21 -2 0 -10 -8 -17
-17z"/>
		<path d="M4502 350 c-7 -12 -8 -20 -2 -20 5 0 10 4 10 10 0 5 6 8 13 6 6 -1 9
-1 4 1 -4 3 -5 9 -1 14 3 5 1 9 -3 9 -5 0 -14 -9 -21 -20z"/>
		<path d="M4576 353 c-6 -14 -5 -15 5 -6 7 7 10 15 7 18 -3 3 -9 -2 -12 -12z"/>
		<path d="M4666 358 c3 -5 10 -6 15 -3 13 9 11 12 -6 12 -8 0 -12 -4 -9 -9z"/>
		<path d="M2375 340 c3 -5 8 -10 11 -10 2 0 4 5 4 10 0 6 -5 10 -11 10 -5 0 -7
-4 -4 -10z"/>
		<path d="M4455 340 c-3 -5 -1 -10 4 -10 6 0 11 5 11 10 0 6 -2 10 -4 10 -3 0
-8 -4 -11 -10z"/>
		<path d="M2545 331 c-3 -5 0 -13 6 -17 7 -4 9 -3 5 4 -3 5 0 13 6 15 9 4 10 6
1 6 -6 1 -14 -3 -18 -8z"/>
		<path d="M2610 321 c0 -10 7 -13 26 -10 4 0 10 -5 14 -11 5 -9 9 -9 14 -1 4 6
2 12 -3 12 -21 3 -26 4 -38 12 -8 5 -13 4 -13 -2z"/>
		<path d="M4390 320 c0 -6 7 -10 15 -10 8 0 15 2 15 4 0 2 -7 6 -15 10 -8 3
-15 1 -15 -4z"/>
		<path d="M4355 310 c-4 -6 -4 -14 -1 -17 3 -4 6 0 6 8 0 12 2 12 10 -1 5 -8
12 -12 15 -9 3 4 -1 12 -9 18 -10 9 -16 9 -21 1z"/>
		<path d="M4456 311 c-4 -5 3 -7 14 -4 23 6 26 13 6 13 -8 0 -17 -4 -20 -9z"/>
		<path d="M2466 302 c-3 -5 1 -9 9 -9 8 0 12 4 9 9 -3 4 -7 8 -9 8 -2 0 -6 -4
-9 -8z"/>
		<path d="M2500 305 c0 -7 30 -13 34 -7 3 4 -4 9 -15 9 -10 1 -19 0 -19 -2z"/>
		<path d="M2688 283 c5 -21 7 -23 10 -9 2 10 0 22 -6 28 -6 6 -7 0 -4 -19z"/>
		<path d="M4535 300 c3 -5 8 -10 11 -10 2 0 4 5 4 10 0 6 -5 10 -11 10 -5 0 -7
-4 -4 -10z"/>
		<path d="M2610 296 c0 -2 8 -10 18 -17 15 -13 16 -12 3 4 -13 16 -21 21 -21
13z"/>
		<path d="M2560 280 c-9 -6 -10 -10 -3 -10 6 0 15 5 18 10 8 12 4 12 -15 0z"/>
		<path d="M2732 281 c2 -7 7 -12 11 -12 12 1 9 15 -3 20 -7 2 -11 -2 -8 -8z"/>
		<path d="M4181 271 c-8 -5 -9 -11 -3 -15 5 -3 12 1 16 9 6 17 6 18 -13 6z"/>
		<path d="M2774 263 c7 -12 -6 -18 -29 -13 -5 1 -7 -2 -2 -6 4 -4 16 -8 26 -9
19 -1 22 18 6 32 -4 4 -5 2 -1 -4z"/>
		<path d="M2834 258 c-4 -7 -4 -10 1 -6 4 4 15 2 24 -5 14 -11 14 -10 2 6 -16
20 -18 21 -27 5z"/>
		<path d="M2715 240 c-3 -5 -1 -10 4 -10 6 0 11 5 11 10 0 6 -2 10 -4 10 -3 0
-8 -4 -11 -10z"/>
		<path d="M2976 237 c3 -10 9 -15 12 -12 3 3 0 11 -7 18 -10 9 -11 8 -5 -6z"/>
		<path d="M4027 233 c3 -7 6 -13 8 -13 2 0 5 6 8 13 3 8 -1 14 -8 14 -7 0 -11
-6 -8 -14z"/>
		<path d="M4155 240 c3 -5 8 -10 11 -10 2 0 4 5 4 10 0 6 -5 10 -11 10 -5 0 -7
-4 -4 -10z"/>
		<path d="M2952 226 c7 -8 15 -12 17 -11 5 6 -10 25 -20 25 -5 0 -4 -6 3 -14z"/>
		<path d="M4116 232 c-2 -4 4 -8 14 -8 10 0 16 4 14 8 -3 4 -9 8 -14 8 -5 0
-11 -4 -14 -8z"/>
		<path d="M4193 225 c0 -8 4 -12 9 -9 5 3 6 10 3 15 -9 13 -12 11 -12 -6z"/>
		<path d="M2796 222 c-2 -4 -1 -14 4 -22 7 -11 9 -9 7 8 -1 24 -3 26 -11 14z"/>
		<path d="M2869 217 c6 -8 7 -18 3 -22 -4 -5 -1 -5 6 -1 10 6 10 11 1 22 -6 8
-14 14 -16 14 -3 0 0 -6 6 -13z"/>
		<path d="M2987 205 c-13 -18 -14 -25 -5 -31 7 -4 10 -3 5 1 -4 5 0 17 10 27 9
10 14 20 12 22 -2 2 -12 -6 -22 -19z"/>
		<path d="M3070 221 c0 -6 4 -13 10 -16 6 -3 7 1 4 9 -7 18 -14 21 -14 7z"/>
		<path d="M3855 221 c-3 -6 -2 -11 4 -11 6 0 9 -6 7 -12 -1 -7 -1 -10 1 -5 3 4
10 4 16 0 7 -4 5 2 -3 13 -8 10 -15 20 -16 22 -1 2 -5 -1 -9 -7z"/>
		<path d="M3180 200 c-6 -11 -8 -20 -6 -20 3 0 10 9 16 20 6 11 8 20 6 20 -3 0
-10 -9 -16 -20z"/>
		<path d="M3735 209 c-4 -6 -5 -12 -2 -15 2 -3 7 2 10 11 7 17 1 20 -8 4z"/>
		<path d="M3760 216 c0 -3 9 -10 20 -16 11 -6 20 -8 20 -6 0 3 -9 10 -20 16
-11 6 -20 8 -20 6z"/>
		<path d="M3957 205 c-4 -8 -3 -16 1 -19 4 -3 9 4 9 15 2 23 -3 25 -10 4z"/>
		<path d="M3015 200 c-4 -6 1 -7 11 -3 13 5 15 3 9 -7 -5 -9 -4 -11 4 -6 6 4 9
12 6 17 -8 12 -22 12 -30 -1z"/>
		<path d="M3126 195 c4 -8 8 -15 10 -15 2 0 4 7 4 15 0 8 -4 15 -10 15 -5 0 -7
-7 -4 -15z"/>
		<path d="M3325 200 c-3 -5 -1 -10 4 -10 6 0 11 5 11 10 0 6 -2 10 -4 10 -3 0
-8 -4 -11 -10z"/>
		<path d="M3359 193 c-13 -16 -12 -17 4 -4 16 13 21 21 13 21 -2 0 -10 -8 -17
-17z"/>
		<path d="M3400 201 c0 -10 19 -25 25 -20 1 2 -3 10 -11 17 -8 7 -14 8 -14 3z"/>
		<path d="M3477 192 c16 -14 19 -22 10 -31 -6 -6 -8 -11 -5 -11 3 0 11 6 17 14
9 11 5 17 -16 30 -28 17 -28 17 -6 -2z"/>
		<path d="M3535 200 c-3 -5 -1 -10 4 -10 6 0 11 5 11 10 0 6 -2 10 -4 10 -3 0
-8 -4 -11 -10z"/>
		<path d="M3566 198 c4 -5 13 -7 21 -4 10 4 13 1 8 -13 -3 -11 -1 -22 4 -26 7
-4 8 1 4 11 -5 13 -3 15 7 9 10 -6 10 -4 2 10 -5 10 -19 19 -30 20 -12 1 -19
-2 -16 -7z"/>
		<path d="M3645 200 c-3 -5 -1 -10 4 -10 6 0 11 5 11 10 0 6 -2 10 -4 10 -3 0
-8 -4 -11 -10z"/>
		<path d="M3750 190 c0 -6 7 -10 15 -10 8 0 15 2 15 4 0 2 -7 6 -15 10 -8 3
-15 1 -15 -4z"/>
		<path d="M3235 181 c-3 -5 0 -13 6 -17 8 -5 9 -3 4 6 -6 10 -4 12 9 7 10 -4
15 -3 11 3 -8 13 -22 13 -30 1z"/>
		<path d="M3379 188 c-8 -27 -5 -36 9 -30 10 4 12 7 4 10 -7 2 -10 8 -6 13 3 5
3 9 0 9 -3 0 -6 -1 -7 -2z"/>
		<path d="M3447 184 c7 -3 9 -13 6 -22 -4 -14 -3 -14 5 -2 12 16 7 30 -11 29
-9 0 -9 -2 0 -5z"/>
		<path d="M3710 184 c0 -20 27 -37 36 -23 4 7 3 9 -4 5 -6 -3 -15 2 -21 11 -6
10 -11 13 -11 7z"/>
		<path d="M3900 185 c0 -2 6 -8 13 -14 10 -8 14 -7 14 2 0 8 -6 14 -14 14 -7 0
-13 -1 -13 -2z"/>
		<path d="M3546 164 c-5 -14 -4 -15 9 -4 17 14 19 20 6 20 -5 0 -12 -7 -15 -16z"/>
		<path d="M3970 161 c0 -6 4 -13 10 -16 6 -3 7 1 4 9 -7 18 -14 21 -14 7z"/>
		<path d="M3250 146 c0 -2 7 -7 16 -10 8 -3 12 -2 9 4 -6 10 -25 14 -25 6z"/>
		<path d="M3325 140 c-3 -6 1 -7 9 -4 18 7 21 14 7 14 -6 0 -13 -4 -16 -10z"/>
		<path d="M3555 129 c-4 -6 -5 -12 -2 -15 2 -3 7 2 10 11 7 17 1 20 -8 4z"/>
		<path d="M3487 119 c7 -7 15 -10 18 -7 3 3 -2 9 -12 12 -14 6 -15 5 -6 -5z"/>
	</g>
</svg>
